Roboto-xopqdflt-xtramin.ufo
<glyph name="exclam" format="1">
  <advance width="406.5"/>
  <unicode hex="0021"/>
  <outline>
    <contour>
      <point x="282.75" y="1456" type="line"/>
      <point x="125.25" y="1456" type="line"/>
      <point x="136.5" y="401" type="line"/>
      <point x="271.5" y="401" type="line"/>
    </contour>
    <contour>
      <point x="121.5" y="49" type="curve" smooth="yes"/>
      <point x="121.5" y="18"/>
      <point x="150.75" y="-6"/>
      <point x="207.75" y="-6" type="curve" smooth="yes"/>
      <point x="264.75" y="-6"/>
      <point x="294.75" y="18"/>
      <point x="294.75" y="49" type="curve" smooth="yes"/>
      <point x="294.75" y="80"/>
      <point x="264.75" y="105"/>
      <point x="207.75" y="105" type="curve" smooth="yes"/>
      <point x="150.75" y="105"/>
      <point x="121.5" y="80"/>
    </contour>
  </outline>
</glyph>
<glyph name="quotedbl" format="1">
  <advance width="503.25"/>
  <unicode hex="0022"/>
  <outline>
    <contour>
      <point x="213.75" y="1536" type="line"/>
      <point x="101.25" y="1536" type="line"/>
      <point x="101.25" y="1390" type="line"/>
      <point x="101.25" y="1122" type="line"/>
      <point x="189.75" y="1122" type="line"/>
      <point x="213.75" y="1393" type="line"/>
    </contour>
    <contour>
      <point x="422.25" y="1536" type="line"/>
      <point x="309.75" y="1536" type="line"/>
      <point x="309.75" y="1390" type="line"/>
      <point x="309.75" y="1122" type="line"/>
      <point x="398.25" y="1122" type="line"/>
      <point x="422.25" y="1393" type="line"/>
    </contour>
  </outline>
</glyph>
<glyph name="numbersign" format="1">
  <advance width="957.75"/>
  <unicode hex="0023"/>
  <outline>
    <contour>
      <point x="211.5" y="0" type="line"/>
      <point x="326.25" y="0" type="line"/>
      <point x="540.75" y="1456" type="line"/>
      <point x="426.0" y="1456" type="line"/>
    </contour>
    <contour>
      <point x="516.0" y="0" type="line"/>
      <point x="630.75" y="0" type="line"/>
      <point x="845.25" y="1456" type="line"/>
      <point x="730.5" y="1456" type="line"/>
    </contour>
    <contour>
      <point x="932.25" y="986" type="line"/>
      <point x="932.25" y="1040" type="line"/>
      <point x="152.25" y="1040" type="line"/>
      <point x="152.25" y="986" type="line"/>
    </contour>
    <contour>
      <point x="876.0" y="410" type="line"/>
      <point x="876.0" y="462" type="line"/>
      <point x="95.25" y="462" type="line"/>
      <point x="95.25" y="410" type="line"/>
    </contour>
  </outline>
</glyph>
<glyph name="dollar" format="1">
  <advance width="865.5"/>
  <unicode hex="0024"/>
  <outline>
    <contour>
      <point x="510.75" y="1663" type="line"/>
      <point x="390.75" y="1663" type="line"/>
      <point x="390.75" y="1437" type="line"/>
      <point x="510.75" y="1437" type="line"/>
    </contour>
    <contour>
      <point x="495.0" y="19" type="line"/>
      <point x="375.75" y="19" type="line"/>
      <point x="375.75" y="-208" type="line"/>
      <point x="495.0" y="-208" type="line"/>
    </contour>
    <contour>
      <point x="634.5" y="344" type="curve"/>
      <point x="634.5" y="183"/>
      <point x="560.25" y="32"/>
      <point x="430.5" y="32" type="curve" smooth="yes"/>
      <point x="336.75" y="32"/>
      <point x="231.75" y="120"/>
      <point x="231.75" y="409" type="curve"/>
      <point x="81.75" y="409" type="line"/>
      <point x="81.75" y="86"/>
      <point x="259.5" y="-21"/>
      <point x="430.5" y="-21" type="curve" smooth="yes"/>
      <point x="645.0" y="-21"/>
      <point x="784.5" y="120"/>
      <point x="784.5" y="346" type="curve"/>
      <point x="784.5" y="586"/>
      <point x="676.5" y="670"/>
      <point x="483.0" y="754" type="curve" smooth="yes"/>
      <point x="325.5" y="857"/>
      <point x="274.5" y="948"/>
      <point x="274.5" y="1112" type="curve"/>
      <point x="274.5" y="1270"/>
      <point x="330.0" y="1424"/>
      <point x="449.25" y="1424" type="curve" smooth="yes"/>
      <point x="563.25" y="1424"/>
      <point x="625.5" y="1262"/>
      <point x="625.5" y="1047" type="curve"/>
      <point x="774.75" y="1047" type="line"/>
      <point x="774.75" y="1324"/>
      <point x="653.25" y="1477"/>
      <point x="449.25" y="1477" type="curve" smooth="yes"/>
      <point x="252.0" y="1477"/>
      <point x="124.5" y="1331"/>
      <point x="124.5" y="1110" type="curve"/>
      <point x="124.5" y="870"/>
      <point x="240.75" y="787"/>
      <point x="430.5" y="702" type="curve" smooth="yes"/>
      <point x="579.75" y="600"/>
      <point x="634.5" y="518"/>
    </contour>
  </outline>
</glyph>
<glyph name="percent" format="1">
  <advance width="1122.75"/>
  <unicode hex="0025"/>
  <outline>
    <contour>
      <point x="78.0" y="1099" type="line"/>
      <point x="78.0" y="936"/>
      <point x="163.5" y="800"/>
      <point x="305.25" y="800" type="curve" smooth="yes"/>
      <point x="446.25" y="800"/>
      <point x="530.25" y="936"/>
      <point x="530.25" y="1099" type="curve" smooth="yes"/>
      <point x="530.25" y="1176" type="line" smooth="yes"/>
      <point x="530.25" y="1341"/>
      <point x="446.25" y="1477"/>
      <point x="303.75" y="1477" type="curve" smooth="yes"/>
      <point x="163.5" y="1477"/>
      <point x="78.0" y="1341"/>
      <point x="78.0" y="1176" type="curve" smooth="yes"/>
    </contour>
    <contour>
      <point x="189.0" y="1176" type="line"/>
      <point x="189.0" y="1299"/>
      <point x="226.5" y="1422"/>
      <point x="303.75" y="1422" type="curve" smooth="yes"/>
      <point x="381.75" y="1422"/>
      <point x="419.25" y="1299"/>
      <point x="419.25" y="1176" type="curve" smooth="yes"/>
      <point x="419.25" y="1099" type="line" smooth="yes"/>
      <point x="419.25" y="977"/>
      <point x="382.5" y="855"/>
      <point x="305.25" y="855" type="curve" smooth="yes"/>
      <point x="226.5" y="855"/>
      <point x="189.0" y="978"/>
      <point x="189.0" y="1099" type="curve" smooth="yes"/>
    </contour>
    <contour>
      <point x="606.0" y="279" type="line"/>
      <point x="606.0" y="115"/>
      <point x="691.5" y="-21"/>
      <point x="833.25" y="-21" type="curve" smooth="yes"/>
      <point x="973.5" y="-21"/>
      <point x="1058.25" y="115"/>
      <point x="1058.25" y="279" type="curve" smooth="yes"/>
      <point x="1058.25" y="357" type="line" smooth="yes"/>
      <point x="1058.25" y="521"/>
      <point x="973.5" y="657"/>
      <point x="831.75" y="657" type="curve" smooth="yes"/>
      <point x="691.5" y="657"/>
      <point x="606.0" y="521"/>
      <point x="606.0" y="357" type="curve" smooth="yes"/>
    </contour>
    <contour>
      <point x="717.0" y="357" type="line"/>
      <point x="717.0" y="491"/>
      <point x="754.5" y="602"/>
      <point x="831.75" y="602" type="curve" smooth="yes"/>
      <point x="909.75" y="602"/>
      <point x="947.25" y="491"/>
      <point x="947.25" y="357" type="curve" smooth="yes"/>
      <point x="947.25" y="279" type="line" smooth="yes"/>
      <point x="947.25" y="156"/>
      <point x="910.5" y="34"/>
      <point x="833.25" y="34" type="curve" smooth="yes"/>
      <point x="754.5" y="34"/>
      <point x="717.0" y="157"/>
      <point x="717.0" y="279" type="curve" smooth="yes"/>
    </contour>
    <contour>
      <point x="870.75" y="1269" type="line"/>
      <point x="787.5" y="1300" type="line"/>
      <point x="254.25" y="162" type="line"/>
      <point x="337.5" y="131" type="line"/>
    </contour>
  </outline>
</glyph>
<glyph name="ampersand" format="1">
  <advance width="957.75"/>
  <unicode hex="0026"/>
  <outline>
    <contour>
      <point x="310.5" y="762" type="line"/>
      <point x="172.5" y="646"/>
      <point x="75.0" y="518"/>
      <point x="75.0" y="352" type="curve"/>
      <point x="75.0" y="124"/>
      <point x="211.5" y="-20"/>
      <point x="431.25" y="-20" type="curve"/>
      <point x="537.75" y="-20"/>
      <point x="657.75" y="65"/>
      <point x="732.0" y="181" type="curve" smooth="yes"/>
      <point x="741.0" y="192"/>
      <point x="744.75" y="186"/>
      <point x="753.75" y="199" type="curve" smooth="yes"/>
      <point x="848.25" y="311"/>
      <point x="890.25" y="450"/>
      <point x="890.25" y="632" type="curve"/>
      <point x="756.0" y="632" type="line"/>
      <point x="756.0" y="274"/>
      <point x="594.0" y="34"/>
      <point x="431.25" y="34" type="curve" smooth="yes"/>
      <point x="291.75" y="34"/>
      <point x="225.0" y="187"/>
      <point x="225.0" y="352" type="curve"/>
      <point x="225.0" y="440"/>
      <point x="233.25" y="551"/>
      <point x="336.75" y="723" type="curve" smooth="yes"/>
      <point x="557.25" y="918" type="line" smooth="yes"/>
      <point x="648.0" y="979"/>
      <point x="705.75" y="1090"/>
      <point x="705.75" y="1213" type="curve" smooth="yes"/>
      <point x="705.75" y="1358"/>
      <point x="603.75" y="1477"/>
      <point x="440.25" y="1477" type="curve" smooth="yes"/>
      <point x="273.0" y="1477"/>
      <point x="162.0" y="1349"/>
      <point x="162.0" y="1167" type="curve" smooth="yes"/>
      <point x="162.0" y="1018"/>
      <point x="246.0" y="893"/>
      <point x="359.25" y="725" type="curve" smooth="yes"/>
      <point x="777.0" y="0" type="line"/>
      <point x="956.25" y="0" type="line"/>
      <point x="442.5" y="826" type="line" smooth="yes"/>
      <point x="367.5" y="951"/>
      <point x="312.0" y="1066"/>
      <point x="312.0" y="1169" type="curve" smooth="yes"/>
      <point x="312.0" y="1307"/>
      <point x="355.5" y="1423"/>
      <point x="439.5" y="1423" type="curve" smooth="yes"/>
      <point x="521.25" y="1423"/>
      <point x="567.75" y="1323"/>
      <point x="567.75" y="1213" type="curve" smooth="yes"/>
      <point x="567.75" y="1115"/>
      <point x="534.75" y="1027"/>
      <point x="471.75" y="960" type="curve" smooth="yes"/>
    </contour>
  </outline>
</glyph>
<glyph name="parenleft" format="1">
  <advance width="533.25"/>
  <unicode hex="0028"/>
  <outline>
    <contour>
      <point x="99.0" y="566" type="line"/>
      <point x="99.0" y="80"/>
      <point x="333.0" y="-329"/>
      <point x="472.5" y="-470" type="curve"/>
      <point x="503.25" y="-427" type="line"/>
      <point x="389.25" y="-296"/>
      <point x="249.0" y="132"/>
      <point x="249.0" y="564" type="curve"/>
      <point x="249.0" y="590" type="line" smooth="yes"/>
      <point x="249.0" y="1022"/>
      <point x="389.25" y="1450"/>
      <point x="503.25" y="1580" type="curve"/>
      <point x="472.5" y="1623" type="line"/>
      <point x="333.0" y="1482"/>
      <point x="99.0" y="1047"/>
      <point x="99.0" y="586" type="curve"/>
    </contour>
  </outline>
</glyph>
<glyph name="parenright" format="1">
  <advance width="542.25"/>
  <unicode hex="0029"/>
  <outline>
    <contour>
      <point x="434.25" y="586" type="line"/>
      <point x="434.25" y="1047"/>
      <point x="200.25" y="1482"/>
      <point x="60.75" y="1623" type="curve"/>
      <point x="30.0" y="1580" type="line"/>
      <point x="132.0" y="1450"/>
      <point x="284.25" y="1022"/>
      <point x="284.25" y="590" type="curve" smooth="yes"/>
      <point x="284.25" y="564" type="line" smooth="yes"/>
      <point x="284.25" y="132"/>
      <point x="144.0" y="-296"/>
      <point x="30.0" y="-427" type="curve"/>
      <point x="60.75" y="-470" type="line"/>
      <point x="200.25" y="-329"/>
      <point x="434.25" y="80"/>
      <point x="434.25" y="566" type="curve" smooth="yes"/>
    </contour>
  </outline>
</glyph>
<glyph name="asterisk" format="1">
  <advance width="663.75"/>
  <unicode hex="002A"/>
  <outline>
    <contour>
      <point x="94.5" y="693" type="line"/>
      <point x="195.0" y="661" type="line"/>
      <point x="326.25" y="986" type="line"/>
      <point x="460.5" y="664" type="line"/>
      <point x="560.25" y="697" type="line"/>
      <point x="416.25" y="1014" type="line"/>
      <point x="642.0" y="1151" type="line"/>
      <point x="605.25" y="1204" type="line"/>
      <point x="387.0" y="1061" type="line"/>
      <point x="394.5" y="1456" type="line"/>
      <point x="272.25" y="1456" type="line"/>
      <point x="279.75" y="1062" type="line"/>
      <point x="58.5" y="1195" type="line"/>
      <point x="21.0" y="1141" type="line"/>
      <point x="242.25" y="1017" type="line"/>
    </contour>
  </outline>
</glyph>
<glyph name="plus" format="1">
  <advance width="872.25"/>
  <unicode hex="002B"/>
  <outline>
    <contour>
      <point x="807.75" y="702" type="line"/>
      <point x="59.25" y="702" type="line"/>
      <point x="59.25" y="649" type="line"/>
      <point x="807.75" y="649" type="line"/>
    </contour>
    <contour>
      <point x="509.25" y="1206" type="line"/>
      <point x="359.25" y="1206" type="line"/>
      <point x="359.25" y="146" type="line"/>
      <point x="509.25" y="146" type="line"/>
    </contour>
  </outline>
</glyph>
<glyph name="hyphen" format="1">
  <advance width="420.75"/>
  <unicode hex="002D"/>
  <outline>
    <contour>
      <point x="393.75" y="693" type="line"/>
      <point x="26.25" y="693" type="line"/>
      <point x="26.25" y="639" type="line"/>
      <point x="393.75" y="639" type="line"/>
    </contour>
  </outline>
</glyph>
<glyph name="zero" format="1">
  <advance width="865.5"/>
  <unicode hex="0030"/>
  <outline>
    <contour>
      <point x="779.25" y="862" type="line"/>
      <point x="779.25" y="1242"/>
      <point x="643.5" y="1477"/>
      <point x="432.0" y="1477" type="curve" smooth="yes"/>
      <point x="222.75" y="1477"/>
      <point x="85.5" y="1242"/>
      <point x="85.5" y="862" type="curve"/>
      <point x="85.5" y="594" type="line"/>
      <point x="85.5" y="214"/>
      <point x="224.25" y="-20"/>
      <point x="433.5" y="-20" type="curve" smooth="yes"/>
      <point x="645.0" y="-20"/>
      <point x="779.25" y="214"/>
      <point x="779.25" y="594" type="curve"/>
    </contour>
    <contour>
      <point x="629.25" y="596" type="line"/>
      <point x="629.25" y="268"/>
      <point x="562.5" y="34"/>
      <point x="433.5" y="34" type="curve" smooth="yes"/>
      <point x="307.5" y="34"/>
      <point x="235.5" y="268"/>
      <point x="235.5" y="596" type="curve" smooth="yes"/>
      <point x="235.5" y="862" type="line" smooth="yes"/>
      <point x="235.5" y="1196"/>
      <point x="306.0" y="1423"/>
      <point x="432.0" y="1423" type="curve" smooth="yes"/>
      <point x="560.25" y="1423"/>
      <point x="629.25" y="1196"/>
      <point x="629.25" y="862" type="curve"/>
    </contour>
  </outline>
</glyph>
<glyph name="two" format="1">
  <advance width="865.5"/>
  <unicode hex="0032"/>
  <outline>
    <contour>
      <point x="810.75" y="54" type="line"/>
      <point x="268.5" y="54" type="line"/>
      <point x="558.75" y="546" type="line" smooth="yes"/>
      <point x="670.5" y="719"/>
      <point x="761.25" y="905"/>
      <point x="761.25" y="1085" type="curve" smooth="yes"/>
      <point x="761.25" y="1340"/>
      <point x="637.5" y="1476"/>
      <point x="429.75" y="1476" type="curve" smooth="yes"/>
      <point x="191.25" y="1476"/>
      <point x="68.25" y="1281"/>
      <point x="68.25" y="1045" type="curve"/>
      <point x="218.25" y="1045" type="line"/>
      <point x="218.25" y="1261"/>
      <point x="284.25" y="1422"/>
      <point x="429.75" y="1422" type="curve" smooth="yes"/>
      <point x="545.25" y="1422"/>
      <point x="611.25" y="1291"/>
      <point x="611.25" y="1085" type="curve" smooth="yes"/>
      <point x="611.25" y="956"/>
      <point x="578.25" y="813"/>
      <point x="446.25" y="604" type="curve" smooth="yes"/>
      <point x="88.5" y="54" type="line"/>
      <point x="88.5" y="0" type="line"/>
      <point x="810.75" y="0" type="line"/>
    </contour>
  </outline>
</glyph>
<glyph name="three" format="1">
  <advance width="865.5"/>
  <unicode hex="0033"/>
  <outline>
    <contour>
      <point x="291.0" y="770" type="line"/>
      <point x="291.0" y="720" type="line"/>
      <point x="413.25" y="720" type="line"/>
      <point x="654.75" y="720"/>
      <point x="748.5" y="881"/>
      <point x="748.5" y="1081" type="curve"/>
      <point x="748.5" y="1326"/>
      <point x="614.25" y="1476"/>
      <point x="416.25" y="1476" type="curve" smooth="yes"/>
      <point x="211.5" y="1476"/>
      <point x="78.0" y="1323"/>
      <point x="78.0" y="1074" type="curve"/>
      <point x="228.0" y="1074" type="line"/>
      <point x="228.0" y="1290"/>
      <point x="303.0" y="1422"/>
      <point x="416.25" y="1422" type="curve" smooth="yes"/>
      <point x="537.75" y="1422"/>
      <point x="598.5" y="1268"/>
      <point x="598.5" y="1085" type="curve"/>
      <point x="598.5" y="917"/>
      <point x="531.0" y="770"/>
      <point x="391.5" y="770" type="curve" smooth="yes"/>
    </contour>
    <contour>
      <point x="291.0" y="714" type="line"/>
      <point x="391.5" y="714" type="line" smooth="yes"/>
      <point x="528.0" y="714"/>
      <point x="614.25" y="620"/>
      <point x="614.25" y="382" type="curve" smooth="yes"/>
      <point x="614.25" y="165"/>
      <point x="537.75" y="34"/>
      <point x="416.25" y="34" type="curve" smooth="yes"/>
      <point x="294.0" y="34"/>
      <point x="220.5" y="189"/>
      <point x="220.5" y="405" type="curve"/>
      <point x="70.5" y="405" type="line"/>
      <point x="70.5" y="111"/>
      <point x="223.5" y="-20"/>
      <point x="416.25" y="-20" type="curve" smooth="yes"/>
      <point x="614.25" y="-20"/>
      <point x="764.25" y="128"/>
      <point x="764.25" y="386" type="curve" smooth="yes"/>
      <point x="764.25" y="629"/>
      <point x="697.5" y="763"/>
      <point x="413.25" y="763" type="curve" smooth="yes"/>
      <point x="291.0" y="763" type="line"/>
    </contour>
  </outline>
</glyph>
<glyph name="four" format="1">
  <advance width="865.5"/>
  <unicode hex="0034"/>
  <outline>
    <contour>
      <point x="829.5" y="451" type="line"/>
      <point x="205.5" y="451" type="line"/>
      <point x="519.75" y="1253" type="line"/>
      <point x="644.25" y="1456" type="line"/>
      <point x="522.75" y="1456" type="line"/>
      <point x="37.5" y="427" type="line"/>
      <point x="37.5" y="397" type="line"/>
      <point x="829.5" y="397" type="line"/>
    </contour>
    <contour>
      <point x="681.75" y="1456" type="line"/>
      <point x="531.75" y="1456" type="line"/>
      <point x="531.75" y="0" type="line"/>
      <point x="681.75" y="0" type="line"/>
    </contour>
  </outline>
</glyph>
<glyph name="five" format="1">
  <advance width="865.5"/>
  <unicode hex="0035"/>
  <outline>
    <contour>
      <point x="273.0" y="746" type="line"/>
      <point x="321.75" y="817"/>
      <point x="354.0" y="862"/>
      <point x="444.75" y="862" type="curve"/>
      <point x="580.5" y="862"/>
      <point x="656.25" y="690"/>
      <point x="656.25" y="462" type="curve" smooth="yes"/>
      <point x="656.25" y="182"/>
      <point x="582.0" y="34"/>
      <point x="456.0" y="34" type="curve" smooth="yes"/>
      <point x="344.25" y="34"/>
      <point x="272.25" y="157"/>
      <point x="255.0" y="383" type="curve"/>
      <point x="113.25" y="383" type="line"/>
      <point x="132.75" y="110"/>
      <point x="279.0" y="-20"/>
      <point x="456.0" y="-20" type="curve" smooth="yes"/>
      <point x="690.75" y="-20"/>
      <point x="806.25" y="185"/>
      <point x="806.25" y="464" type="curve" smooth="yes"/>
      <point x="806.25" y="748"/>
      <point x="683.25" y="916"/>
      <point x="480.75" y="916" type="curve" smooth="yes"/>
      <point x="402.75" y="916"/>
      <point x="343.5" y="860"/>
      <point x="303.75" y="819" type="curve"/>
      <point x="335.25" y="1403" type="line"/>
      <point x="771.75" y="1403" type="line"/>
      <point x="771.75" y="1456" type="line"/>
      <point x="208.5" y="1456" type="line"/>
      <point x="153.0" y="762" type="line"/>
    </contour>
  </outline>
</glyph>
<glyph name="six" format="1">
  <advance width="865.5"/>
  <unicode hex="0036"/>
  <outline>
    <contour>
      <point x="624.0" y="1476" type="line"/>
      <point x="187.5" y="1476"/>
      <point x="99.75" y="1241"/>
      <point x="99.75" y="660" type="curve"/>
      <point x="99.75" y="492" type="line"/>
      <point x="99.75" y="177"/>
      <point x="210.75" y="-20"/>
      <point x="450.75" y="-20" type="curve" smooth="yes"/>
      <point x="676.5" y="-20"/>
      <point x="792.75" y="197"/>
      <point x="792.75" y="480" type="curve"/>
      <point x="792.75" y="754"/>
      <point x="699.75" y="957"/>
      <point x="480.0" y="957" type="curve"/>
      <point x="324.75" y="957"/>
      <point x="192.0" y="762"/>
      <point x="160.5" y="558" type="curve"/>
      <point x="238.5" y="556" type="line"/>
      <point x="248.25" y="748"/>
      <point x="343.5" y="903"/>
      <point x="455.25" y="903" type="curve"/>
      <point x="584.25" y="903"/>
      <point x="645.0" y="716"/>
      <point x="645.0" y="480" type="curve" smooth="yes"/>
      <point x="645.0" y="244"/>
      <point x="575.25" y="33"/>
      <point x="450.75" y="33" type="curve" smooth="yes"/>
      <point x="349.5" y="33"/>
      <point x="250.5" y="215"/>
      <point x="250.5" y="493" type="curve" smooth="yes"/>
      <point x="250.5" y="681" type="line" smooth="yes"/>
      <point x="250.5" y="1204"/>
      <point x="326.25" y="1422"/>
      <point x="624.0" y="1422" type="curve"/>
      <point x="636.0" y="1422" type="line"/>
      <point x="636.0" y="1476" type="line"/>
    </contour>
  </outline>
</glyph>
<glyph name="seven" format="1">
  <advance width="865.5"/>
  <unicode hex="0037"/>
  <outline>
    <contour>
      <point x="801.0" y="1456" type="line"/>
      <point x="58.5" y="1456" type="line"/>
      <point x="58.5" y="1402" type="line"/>
      <point x="642.75" y="1402" type="line"/>
      <point x="194.25" y="0" type="line"/>
      <point x="351.75" y="0" type="line"/>
      <point x="801.0" y="1422" type="line"/>
    </contour>
  </outline>
</glyph>
<glyph name="eight" format="1">
  <advance width="865.5"/>
  <unicode hex="0038"/>
  <outline>
    <contour>
      <point x="780.0" y="379" type="curve" smooth="yes"/>
      <point x="780.0" y="608"/>
      <point x="633.0" y="765"/>
      <point x="431.25" y="765" type="curve" smooth="yes"/>
      <point x="227.25" y="765"/>
      <point x="85.5" y="608"/>
      <point x="85.5" y="379" type="curve" smooth="yes"/>
      <point x="85.5" y="114"/>
      <point x="236.25" y="-20"/>
      <point x="432.75" y="-20" type="curve" smooth="yes"/>
      <point x="629.25" y="-20"/>
      <point x="780.0" y="114"/>
    </contour>
    <contour>
      <point x="630.0" y="374" type="curve" smooth="yes"/>
      <point x="630.0" y="154"/>
      <point x="557.25" y="34"/>
      <point x="432.75" y="34" type="curve" smooth="yes"/>
      <point x="309.0" y="34"/>
      <point x="235.5" y="154"/>
      <point x="235.5" y="374" type="curve" smooth="yes"/>
      <point x="235.5" y="584"/>
      <point x="309.75" y="718"/>
      <point x="431.25" y="718" type="curve" smooth="yes"/>
      <point x="550.5" y="718"/>
      <point x="630.0" y="584"/>
    </contour>
    <contour>
      <point x="755.25" y="1086" type="curve" smooth="yes"/>
      <point x="755.25" y="1339"/>
      <point x="620.25" y="1476"/>
      <point x="432.75" y="1476" type="curve" smooth="yes"/>
      <point x="245.25" y="1476"/>
      <point x="110.25" y="1339"/>
      <point x="110.25" y="1086" type="curve" smooth="yes"/>
      <point x="110.25" y="871"/>
      <point x="243.75" y="723"/>
      <point x="432.75" y="723" type="curve" smooth="yes"/>
      <point x="618.0" y="723"/>
      <point x="755.25" y="871"/>
    </contour>
    <contour>
      <point x="605.25" y="1091" type="curve" smooth="yes"/>
      <point x="605.25" y="894"/>
      <point x="537.0" y="772"/>
      <point x="432.75" y="772" type="curve" smooth="yes"/>
      <point x="328.5" y="772"/>
      <point x="260.25" y="894"/>
      <point x="260.25" y="1091" type="curve" smooth="yes"/>
      <point x="260.25" y="1297"/>
      <point x="329.25" y="1422"/>
      <point x="432.75" y="1422" type="curve" smooth="yes"/>
      <point x="536.25" y="1422"/>
      <point x="605.25" y="1285"/>
    </contour>
  </outline>
</glyph>
<glyph name="less" format="1">
  <advance width="780.0"/>
  <unicode hex="003C"/>
  <outline>
    <contour>
      <point x="156.0" y="683" type="line"/>
      <point x="53.25" y="683" type="line"/>
      <point x="53.25" y="641" type="line"/>
      <point x="665.25" y="262" type="line"/>
      <point x="665.25" y="321" type="line"/>
    </contour>
    <contour>
      <point x="665.25" y="1011" type="line"/>
      <point x="665.25" y="1069" type="line"/>
      <point x="53.25" y="691" type="line"/>
      <point x="53.25" y="649" type="line"/>
      <point x="156.75" y="649" type="line"/>
    </contour>
  </outline>
</glyph>
<glyph name="equal" format="1">
  <advance width="841.5"/>
  <unicode hex="003D"/>
  <outline>
    <contour>
      <point x="740.25" y="897" type="line"/>
      <point x="114.75" y="897" type="line"/>
      <point x="114.75" y="843" type="line"/>
      <point x="740.25" y="843" type="line"/>
    </contour>
    <contour>
      <point x="740.25" y="490" type="line"/>
      <point x="114.75" y="490" type="line"/>
      <point x="114.75" y="436" type="line"/>
      <point x="740.25" y="436" type="line"/>
    </contour>
  </outline>
</glyph>
<glyph name="at" format="1">
  <advance width="1374.0"/>
  <unicode hex="0040"/>
  <outline>
    <contour>
      <point x="1299.0" y="523" type="curve"/>
      <point x="1316.25" y="1067"/>
      <point x="1105.5" y="1411"/>
      <point x="723.75" y="1411" type="curve" smooth="yes"/>
      <point x="347.25" y="1411"/>
      <point x="103.5" y="1049"/>
      <point x="85.5" y="478" type="curve" smooth="yes"/>
      <point x="68.25" y="-96"/>
      <point x="288.0" y="-453"/>
      <point x="668.25" y="-453" type="curve" smooth="yes"/>
      <point x="762.0" y="-453"/>
      <point x="878.25" y="-421"/>
      <point x="948.75" y="-364" type="curve"/>
      <point x="919.5" y="-318" type="line"/>
      <point x="857.25" y="-366"/>
      <point x="759.75" y="-398"/>
      <point x="671.25" y="-398" type="curve" smooth="yes"/>
      <point x="357.0" y="-398"/>
      <point x="184.5" y="-17"/>
      <point x="201.75" y="478" type="curve" smooth="yes"/>
      <point x="216.75" y="1017"/>
      <point x="408.0" y="1354"/>
      <point x="720.75" y="1354" type="curve" smooth="yes"/>
      <point x="1063.5" y="1354"/>
      <point x="1212.75" y="1033"/>
      <point x="1196.25" y="523" type="curve" smooth="yes"/>
      <point x="1189.5" y="243"/>
      <point x="1124.25" y="35"/>
      <point x="1006.5" y="35" type="curve" smooth="yes"/>
      <point x="957.75" y="35"/>
      <point x="903.0" y="61"/>
      <point x="915.0" y="293" type="curve"/>
      <point x="954.0" y="878" type="line"/>
      <point x="835.5" y="878" type="line"/>
      <point x="797.25" y="293" type="line" smooth="yes"/>
      <point x="780.75" y="101"/>
      <point x="848.25" y="-20"/>
      <point x="989.25" y="-20" type="curve"/>
      <point x="1209.75" y="-20"/>
      <point x="1291.5" y="267"/>
    </contour>
    <contour>
      <point x="538.5" y="436" type="curve" smooth="yes"/>
      <point x="557.25" y="780"/>
      <point x="641.25" y="933"/>
      <point x="747.75" y="933" type="curve" smooth="yes"/>
      <point x="811.5" y="933"/>
      <point x="858.0" y="898"/>
      <point x="887.25" y="844" type="curve"/>
      <point x="954.0" y="878" type="line"/>
      <point x="897.0" y="935"/>
      <point x="844.5" y="988"/>
      <point x="734.25" y="988" type="curve" smooth="yes"/>
      <point x="582.0" y="988"/>
      <point x="433.5" y="773"/>
      <point x="410.25" y="436" type="curve" smooth="yes"/>
      <point x="392.25" y="162"/>
      <point x="465.0" y="-20"/>
      <point x="613.5" y="-20" type="curve" smooth="yes"/>
      <point x="713.25" y="-20"/>
      <point x="818.25" y="102"/>
      <point x="864.0" y="336" type="curve"/>
      <point x="811.5" y="386" type="line"/>
      <point x="777.75" y="91"/>
      <point x="706.5" y="34"/>
      <point x="651.75" y="34" type="curve" smooth="yes"/>
      <point x="567.0" y="34"/>
      <point x="525.0" y="213"/>
    </contour>
  </outline>
</glyph>
<glyph name="A" format="1">
  <advance width="1011.75"/>
  <unicode hex="0041"/>
  <outline>
    <contour>
      <point x="538.5" y="1410" type="line"/>
      <point x="540.0" y="1456" type="line"/>
      <point x="438.75" y="1456" type="line"/>
      <point x="21.0" y="0" type="line"/>
      <point x="180.75" y="0" type="line"/>
    </contour>
    <contour>
      <point x="832.5" y="0" type="line"/>
      <point x="992.25" y="0" type="line"/>
      <point x="573.75" y="1456" type="line"/>
      <point x="472.5" y="1456" type="line"/>
      <point x="474.0" y="1410" type="line"/>
    </contour>
    <contour>
      <point x="824.25" y="489" type="line"/>
      <point x="203.25" y="489" type="line"/>
      <point x="203.25" y="435" type="line"/>
      <point x="824.25" y="435" type="line"/>
    </contour>
    <contour>
      <point x="989.25" y="0" type="move" name="right"/>
    </contour>
    <contour>
      <point x="1011.75" y="1612" type="move" name="top0315"/>
    </contour>
    <contour>
      <point x="277.5" y="1454" type="move" name="tonos"/>
    </contour>
    <contour>
      <point x="509.25" y="1612" type="move" name="top"/>
    </contour>
    <contour>
      <point x="518.25" y="0" type="move" name="bottom"/>
    </contour>
    <contour>
      <point x="1011.75" y="1600" type="move" name="top_dd"/>
    </contour>
    <contour>
      <point x="960.75" y="0" type="move" name="ogonek"/>
    </contour>
    <contour>
      <point x="1011.75" y="-407" type="move" name="bottom_dd"/>
    </contour>
  </outline>
</glyph>
<glyph name="B" format="1">
  <advance width="960.0"/>
  <unicode hex="0042"/>
  <outline>
    <contour>
      <point x="516.0" y="719" type="line"/>
      <point x="566.25" y="749" type="line"/>
      <point x="732.0" y="768"/>
      <point x="846.0" y="903"/>
      <point x="846.0" y="1083" type="curve"/>
      <point x="846.0" y="1340"/>
      <point x="713.25" y="1456"/>
      <point x="489.75" y="1456" type="curve"/>
      <point x="124.5" y="1456" type="line"/>
      <point x="124.5" y="0" type="line"/>
      <point x="280.5" y="0" type="line"/>
      <point x="280.5" y="1402" type="line"/>
      <point x="489.75" y="1402" type="line"/>
      <point x="625.5" y="1402"/>
      <point x="690.0" y="1296"/>
      <point x="690.0" y="1087" type="curve"/>
      <point x="690.0" y="874"/>
      <point x="609.0" y="773"/>
      <point x="492.75" y="773" type="curve"/>
      <point x="245.25" y="773" type="line"/>
      <point x="246.75" y="719" type="line"/>
    </contour>
    <contour>
      <point x="509.25" y="0" type="line"/>
      <point x="729.75" y="0"/>
      <point x="873.0" y="142"/>
      <point x="873.0" y="401" type="curve" smooth="yes"/>
      <point x="873.0" y="579"/>
      <point x="786.0" y="732"/>
      <point x="626.25" y="754" type="curve"/>
      <point x="592.5" y="773" type="line"/>
      <point x="308.25" y="773" type="line"/>
      <point x="306.75" y="719" type="line"/>
      <point x="516.0" y="719" type="line" smooth="yes"/>
      <point x="657.75" y="719"/>
      <point x="717.0" y="566"/>
      <point x="717.0" y="399" type="curve" smooth="yes"/>
      <point x="717.0" y="182"/>
      <point x="641.25" y="54"/>
      <point x="509.25" y="54" type="curve" smooth="yes"/>
      <point x="273.0" y="54" type="line"/>
      <point x="183.0" y="0" type="line"/>
    </contour>
    <contour>
      <point x="458.25" y="1612" type="move" name="top"/>
    </contour>
    <contour>
      <point x="464.25" y="10" type="move" name="bottom"/>
    </contour>
    <contour>
      <point x="960.0" y="1600" type="move" name="top_dd"/>
    </contour>
    <contour>
      <point x="960.0" y="-407" type="move" name="bottom_dd"/>
    </contour>
    <contour>
      <point x="960.0" y="1612" type="move" name="top0315"/>
    </contour>
  </outline>
</glyph>
<glyph name="C" format="1">
  <advance width="1000.5"/>
  <unicode hex="0043"/>
  <outline>
    <contour>
      <point x="778.5" y="446" type="line"/>
      <point x="753.75" y="161"/>
      <point x="699.75" y="34"/>
      <point x="517.5" y="34" type="curve" smooth="yes"/>
      <point x="325.5" y="34"/>
      <point x="243.75" y="266"/>
      <point x="243.75" y="619" type="curve" smooth="yes"/>
      <point x="243.75" y="839" type="line" smooth="yes"/>
      <point x="243.75" y="1190"/>
      <point x="340.5" y="1422"/>
      <point x="531.75" y="1422" type="curve" smooth="yes"/>
      <point x="696.0" y="1422"/>
      <point x="756.75" y="1279"/>
      <point x="778.5" y="1012" type="curve"/>
      <point x="934.5" y="1012" type="line"/>
      <point x="912.0" y="1323"/>
      <point x="782.25" y="1476"/>
      <point x="531.75" y="1476" type="curve" smooth="yes"/>
      <point x="258.0" y="1476"/>
      <point x="87.75" y="1217"/>
      <point x="87.75" y="837" type="curve"/>
      <point x="87.75" y="619" type="line"/>
      <point x="87.75" y="239"/>
      <point x="258.75" y="-20"/>
      <point x="517.5" y="-20" type="curve" smooth="yes"/>
      <point x="784.5" y="-20"/>
      <point x="911.25" y="131"/>
      <point x="934.5" y="446" type="curve"/>
    </contour>
    <contour>
      <point x="510.0" y="1633" type="move" name="top"/>
    </contour>
    <contour>
      <point x="510.0" y="-10" type="move" name="bottom"/>
    </contour>
    <contour>
      <point x="1000.5" y="1600" type="move" name="top_dd"/>
    </contour>
    <contour>
      <point x="1000.5" y="-407" type="move" name="bottom_dd"/>
    </contour>
    <contour>
      <point x="1000.5" y="1633" type="move" name="top0315"/>
    </contour>
  </outline>
</glyph>
<glyph name="D" format="1">
  <advance width="1008.0"/>
  <unicode hex="0044"/>
  <outline>
    <contour>
      <point x="419.25" y="0" type="line"/>
      <point x="726.75" y="0"/>
      <point x="918.75" y="260"/>
      <point x="918.75" y="639" type="curve"/>
      <point x="918.75" y="817" type="line"/>
      <point x="918.75" y="1196"/>
      <point x="723.75" y="1456"/>
      <point x="433.5" y="1456" type="curve"/>
      <point x="190.5" y="1456" type="line"/>
      <point x="190.5" y="1402" type="line"/>
      <point x="433.5" y="1402" type="line"/>
      <point x="647.25" y="1402"/>
      <point x="764.25" y="1159"/>
      <point x="764.25" y="820" type="curve"/>
      <point x="764.25" y="639" type="line" smooth="yes"/>
      <point x="764.25" y="297"/>
      <point x="651.75" y="54"/>
      <point x="419.25" y="54" type="curve"/>
      <point x="196.5" y="54" type="line"/>
      <point x="195.0" y="0" type="line"/>
    </contour>
    <contour>
      <point x="280.5" y="1456" type="line"/>
      <point x="124.5" y="1456" type="line"/>
      <point x="124.5" y="0" type="line"/>
      <point x="280.5" y="0" type="line"/>
    </contour>
    <contour>
      <point x="461.25" y="10" type="move" name="bottom"/>
    </contour>
    <contour>
      <point x="458.25" y="1612" type="move" name="top"/>
    </contour>
    <contour>
      <point x="1008.0" y="1612" type="move" name="top0315"/>
    </contour>
    <contour>
      <point x="238.5" y="738" type="move" name="cross"/>
    </contour>
    <contour>
      <point x="1008.0" y="1600" type="move" name="top_dd"/>
    </contour>
    <contour>
      <point x="1008.0" y="-407" type="move" name="bottom_dd"/>
    </contour>
  </outline>
</glyph>
<glyph name="E" format="1">
  <advance width="873.0"/>
  <unicode hex="0045"/>
  <outline>
    <contour>
      <point x="821.25" y="54" type="line"/>
      <point x="251.25" y="54" type="line"/>
      <point x="251.25" y="0" type="line"/>
      <point x="821.25" y="0" type="line"/>
    </contour>
    <contour>
      <point x="280.5" y="1456" type="line"/>
      <point x="124.5" y="1456" type="line"/>
      <point x="124.5" y="0" type="line"/>
      <point x="280.5" y="0" type="line"/>
    </contour>
    <contour>
      <point x="744.75" y="776" type="line"/>
      <point x="251.25" y="776" type="line"/>
      <point x="251.25" y="722" type="line"/>
      <point x="744.75" y="722" type="line"/>
    </contour>
    <contour>
      <point x="813.0" y="1456" type="line"/>
      <point x="251.25" y="1456" type="line"/>
      <point x="251.25" y="1402" type="line"/>
      <point x="813.0" y="1402" type="line"/>
    </contour>
    <contour>
      <point x="873.0" y="1612" type="move" name="top0315"/>
    </contour>
    <contour>
      <point x="-29.25" y="1457" type="move" name="tonos"/>
    </contour>
    <contour>
      <point x="464.25" y="1612" type="move" name="top"/>
    </contour>
    <contour>
      <point x="464.25" y="10" type="move" name="bottom"/>
    </contour>
    <contour>
      <point x="873.0" y="1600" type="move" name="top_dd"/>
    </contour>
    <contour>
      <point x="765.75" y="0" type="move" name="ogonek"/>
    </contour>
    <contour>
      <point x="873.0" y="-407" type="move" name="bottom_dd"/>
    </contour>
  </outline>
</glyph>
<glyph name="F" format="1">
  <advance width="846.0"/>
  <unicode hex="0046"/>
  <outline>
    <contour>
      <point x="280.5" y="1456" type="line"/>
      <point x="124.5" y="1456" type="line"/>
      <point x="124.5" y="0" type="line"/>
      <point x="280.5" y="0" type="line"/>
    </contour>
    <contour>
      <point x="726.75" y="772" type="line"/>
      <point x="249.0" y="772" type="line"/>
      <point x="249.0" y="716" type="line"/>
      <point x="726.75" y="716" type="line"/>
    </contour>
    <contour>
      <point x="801.0" y="1456" type="line"/>
      <point x="249.0" y="1456" type="line"/>
      <point x="249.0" y="1402" type="line"/>
      <point x="801.0" y="1402" type="line"/>
    </contour>
    <contour>
      <point x="398.25" y="10" type="move" name="bottom"/>
    </contour>
    <contour>
      <point x="464.25" y="1612" type="move" name="top"/>
    </contour>
    <contour>
      <point x="846.0" y="1612" type="move" name="top0315"/>
    </contour>
    <contour>
      <point x="249.75" y="337" type="move" name="cross"/>
    </contour>
    <contour>
      <point x="846.0" y="1600" type="move" name="top_dd"/>
    </contour>
    <contour>
      <point x="846.0" y="-407" type="move" name="bottom_dd"/>
    </contour>
  </outline>
</glyph>
<glyph name="G" format="1">
  <advance width="1045.5"/>
  <unicode hex="0047"/>
  <outline>
    <contour>
      <point x="935.25" y="660" type="line"/>
      <point x="536.25" y="660" type="line"/>
      <point x="536.25" y="605" type="line"/>
      <point x="780.0" y="605" type="line"/>
      <point x="780.0" y="181" type="line"/>
      <point x="751.5" y="122"/>
      <point x="700.5" y="34"/>
      <point x="548.25" y="34" type="curve" smooth="yes"/>
      <point x="366.75" y="34"/>
      <point x="244.5" y="277"/>
      <point x="244.5" y="620" type="curve" smooth="yes"/>
      <point x="244.5" y="860" type="line" smooth="yes"/>
      <point x="244.5" y="1188"/>
      <point x="330.0" y="1422"/>
      <point x="531.0" y="1422" type="curve" smooth="yes"/>
      <point x="691.5" y="1422"/>
      <point x="759.0" y="1252"/>
      <point x="779.25" y="1062" type="curve"/>
      <point x="935.25" y="1062" type="line"/>
      <point x="906.75" y="1295"/>
      <point x="781.5" y="1476"/>
      <point x="530.25" y="1476" type="curve" smooth="yes"/>
      <point x="243.75" y="1476"/>
      <point x="87.75" y="1225"/>
      <point x="87.75" y="858" type="curve" smooth="yes"/>
      <point x="87.75" y="620" type="line" smooth="yes"/>
      <point x="87.75" y="240"/>
      <point x="279.75" y="-20"/>
      <point x="547.5" y="-20" type="curve" smooth="yes"/>
      <point x="795.75" y="-20"/>
      <point x="893.25" y="90"/>
      <point x="935.25" y="156" type="curve"/>
    </contour>
    <contour>
      <point x="501.0" y="1633" type="move" name="top"/>
    </contour>
    <contour>
      <point x="547.5" y="0" type="move" name="bottom"/>
    </contour>
    <contour>
      <point x="1045.5" y="1600" type="move" name="top_dd"/>
    </contour>
    <contour>
      <point x="1045.5" y="-407" type="move" name="bottom_dd"/>
    </contour>
    <contour>
      <point x="1045.5" y="1633" type="move" name="top0315"/>
    </contour>
  </outline>
</glyph>
<glyph name="H" format="1">
  <advance width="1097.25"/>
  <unicode hex="0048"/>
  <outline>
    <contour>
      <point x="832.5" y="776" type="line"/>
      <point x="258.0" y="776" type="line"/>
      <point x="258.0" y="722" type="line"/>
      <point x="832.5" y="722" type="line"/>
    </contour>
    <contour>
      <point x="280.5" y="1456" type="line"/>
      <point x="124.5" y="1456" type="line"/>
      <point x="124.5" y="0" type="line"/>
      <point x="280.5" y="0" type="line"/>
    </contour>
    <contour>
      <point x="970.5" y="1456" type="line"/>
      <point x="814.5" y="1456" type="line"/>
      <point x="814.5" y="0" type="line"/>
      <point x="970.5" y="0" type="line"/>
    </contour>
    <contour>
      <point x="969.75" y="0" type="move" name="right"/>
    </contour>
    <contour>
      <point x="1097.25" y="1612" type="move" name="top0315"/>
    </contour>
    <contour>
      <point x="-18.75" y="1457" type="move" name="tonos"/>
    </contour>
    <contour>
      <point x="534.0" y="1612" type="move" name="top"/>
    </contour>
    <contour>
      <point x="535.5" y="10" type="move" name="bottom"/>
    </contour>
    <contour>
      <point x="1097.25" y="1600" type="move" name="top_dd"/>
    </contour>
    <contour>
      <point x="1097.25" y="-407" type="move" name="bottom_dd"/>
    </contour>
  </outline>
</glyph>
<glyph name="J" format="1">
  <advance width="848.25"/>
  <unicode hex="004A"/>
  <outline>
    <contour>
      <point x="576.75" y="442" type="line"/>
      <point x="576.75" y="173"/>
      <point x="495.0" y="34"/>
      <point x="384.75" y="34" type="curve" smooth="yes"/>
      <point x="274.5" y="34"/>
      <point x="192.75" y="165"/>
      <point x="192.75" y="401" type="curve"/>
      <point x="36.75" y="401" type="line"/>
      <point x="36.75" y="116"/>
      <point x="183.0" y="-20"/>
      <point x="384.75" y="-20" type="curve" smooth="yes"/>
      <point x="588.0" y="-20"/>
      <point x="732.75" y="143"/>
      <point x="732.75" y="442" type="curve"/>
      <point x="732.75" y="1456" type="line"/>
      <point x="576.75" y="1456" type="line"/>
    </contour>
    <contour>
      <point x="634.5" y="1582" type="move" name="top"/>
    </contour>
    <contour>
      <point x="384.0" y="-10" type="move" name="bottom"/>
    </contour>
    <contour>
      <point x="848.25" y="1600" type="move" name="top_dd"/>
    </contour>
    <contour>
      <point x="848.25" y="-407" type="move" name="bottom_dd"/>
    </contour>
    <contour>
      <point x="848.25" y="1582" type="move" name="top0315"/>
    </contour>
  </outline>
</glyph>
<glyph name="K" format="1">
  <advance width="962.25"/>
  <unicode hex="004B"/>
  <outline>
    <contour>
      <point x="280.5" y="1456" type="line"/>
      <point x="124.5" y="1456" type="line"/>
      <point x="124.5" y="0" type="line"/>
      <point x="280.5" y="0" type="line"/>
    </contour>
    <contour>
      <point x="936.0" y="1456" type="line"/>
      <point x="749.25" y="1456" type="line"/>
      <point x="392.25" y="847" type="line"/>
      <point x="200.25" y="601" type="line"/>
      <point x="227.25" y="531" type="line"/>
      <point x="486.0" y="801" type="line"/>
    </contour>
    <contour>
      <point x="783.0" y="0" type="line"/>
      <point x="969.0" y="0" type="line"/>
      <point x="483.75" y="832" type="line"/>
      <point x="390.75" y="785" type="line"/>
    </contour>
    <contour>
      <point x="921.0" y="-30" type="move" name="right"/>
    </contour>
    <contour>
      <point x="962.25" y="1524" type="move" name="top0315"/>
    </contour>
    <contour>
      <point x="453.75" y="1524" type="move" name="top"/>
    </contour>
    <contour>
      <point x="498.0" y="110" type="move" name="bottom"/>
    </contour>
    <contour>
      <point x="207.0" y="1229" type="move" name="cross"/>
    </contour>
    <contour>
      <point x="962.25" y="1600" type="move" name="top_dd"/>
    </contour>
    <contour>
      <point x="962.25" y="-407" type="move" name="bottom_dd"/>
    </contour>
  </outline>
</glyph>
<glyph name="L" format="1">
  <advance width="831.0"/>
  <unicode hex="004C"/>
  <outline>
    <contour>
      <point x="793.5" y="54" type="line"/>
      <point x="251.25" y="54" type="line"/>
      <point x="251.25" y="0" type="line"/>
      <point x="793.5" y="0" type="line"/>
    </contour>
    <contour>
      <point x="280.5" y="1456" type="line"/>
      <point x="124.5" y="1456" type="line"/>
      <point x="124.5" y="0" type="line"/>
      <point x="280.5" y="0" type="line"/>
    </contour>
    <contour>
      <point x="831.0" y="1549" type="move" name="top0315"/>
    </contour>
    <contour>
      <point x="200.25" y="1549" type="move" name="top"/>
    </contour>
    <contour>
      <point x="464.25" y="10" type="move" name="bottom"/>
    </contour>
    <contour>
      <point x="456.0" y="1455" type="move" name="caron"/>
    </contour>
    <contour>
      <point x="831.0" y="1600" type="move" name="top_dd"/>
    </contour>
    <contour>
      <point x="831.0" y="-407" type="move" name="bottom_dd"/>
    </contour>
    <contour>
      <point x="450.0" y="755" type="move" name="dot"/>
    </contour>
  </outline>
</glyph>
<glyph name="M" format="1">
  <advance width="1344.0"/>
  <unicode hex="004D"/>
  <outline>
    <contour>
      <point x="173.25" y="1456" type="line"/>
      <point x="612.0" y="0" type="line"/>
      <point x="730.5" y="0" type="line"/>
      <point x="1170.0" y="1456" type="line"/>
      <point x="1018.5" y="1456" type="line"/>
      <point x="672.0" y="79" type="line"/>
      <point x="324.75" y="1456" type="line"/>
    </contour>
    <contour>
      <point x="124.5" y="1456" type="line"/>
      <point x="124.5" y="0" type="line"/>
      <point x="279.75" y="0" type="line"/>
      <point x="279.75" y="703" type="line"/>
      <point x="257.25" y="1456" type="line"/>
    </contour>
    <contour>
      <point x="1086.0" y="1456" type="line"/>
      <point x="1063.5" y="703" type="line"/>
      <point x="1063.5" y="0" type="line"/>
      <point x="1218.75" y="0" type="line"/>
      <point x="1218.75" y="1456" type="line"/>
    </contour>
    <contour>
      <point x="1207.5" y="0" type="move" name="right"/>
    </contour>
    <contour>
      <point x="671.25" y="10" type="move" name="bottom"/>
    </contour>
    <contour>
      <point x="667.5" y="1612" type="move" name="top"/>
    </contour>
    <contour>
      <point x="1344.0" y="1612" type="move" name="top0315"/>
    </contour>
    <contour>
      <point x="1344.0" y="1600" type="move" name="top_dd"/>
    </contour>
    <contour>
      <point x="1344.0" y="-407" type="move" name="bottom_dd"/>
    </contour>
  </outline>
</glyph>
<glyph name="N" format="1">
  <advance width="1096.5"/>
  <unicode hex="004E"/>
  <outline>
    <contour>
      <point x="969.75" y="1456" type="line"/>
      <point x="815.25" y="1456" type="line"/>
      <point x="815.25" y="95" type="line"/>
      <point x="280.5" y="1456" type="line"/>
      <point x="124.5" y="1456" type="line"/>
      <point x="124.5" y="0" type="line"/>
      <point x="280.5" y="0" type="line"/>
      <point x="280.5" y="1364" type="line"/>
      <point x="813.0" y="0" type="line"/>
      <point x="969.75" y="0" type="line"/>
    </contour>
    <contour>
      <point x="969.0" y="0" type="move" name="right"/>
    </contour>
    <contour>
      <point x="539.25" y="10" type="move" name="bottom"/>
    </contour>
    <contour>
      <point x="544.5" y="1612" type="move" name="top"/>
    </contour>
    <contour>
      <point x="1096.5" y="1612" type="move" name="top0315"/>
    </contour>
    <contour>
      <point x="1096.5" y="1600" type="move" name="top_dd"/>
    </contour>
    <contour>
      <point x="1096.5" y="-407" type="move" name="bottom_dd"/>
    </contour>
  </outline>
</glyph>
<glyph name="P" format="1">
  <advance width="974.25"/>
  <unicode hex="0050"/>
  <outline>
    <contour>
      <point x="534.0" y="615" type="line"/>
      <point x="783.0" y="615"/>
      <point x="920.25" y="774"/>
      <point x="920.25" y="1031" type="curve"/>
      <point x="920.25" y="1287"/>
      <point x="783.0" y="1456"/>
      <point x="534.0" y="1456" type="curve"/>
      <point x="124.5" y="1456" type="line"/>
      <point x="124.5" y="0" type="line"/>
      <point x="280.5" y="0" type="line"/>
      <point x="280.5" y="1402" type="line"/>
      <point x="534.0" y="1402" type="line"/>
      <point x="697.5" y="1402"/>
      <point x="764.25" y="1235"/>
      <point x="764.25" y="1029" type="curve"/>
      <point x="764.25" y="831"/>
      <point x="697.5" y="669"/>
      <point x="534.0" y="669" type="curve"/>
      <point x="246.75" y="669" type="line"/>
      <point x="246.75" y="615" type="line"/>
    </contour>
    <contour>
      <point x="397.5" y="10" type="move" name="bottom"/>
    </contour>
    <contour>
      <point x="18.75" y="1454" type="move" name="tonos"/>
    </contour>
    <contour>
      <point x="458.25" y="1612" type="move" name="top"/>
    </contour>
    <contour>
      <point x="974.25" y="1612" type="move" name="top0315"/>
    </contour>
    <contour>
      <point x="974.25" y="1600" type="move" name="top_dd"/>
    </contour>
    <contour>
      <point x="974.25" y="-407" type="move" name="bottom_dd"/>
    </contour>
  </outline>
</glyph>
<glyph name="Q" format="1">
  <advance width="1060.5"/>
  <unicode hex="0051"/>
  <outline>
    <contour>
      <point x="688.5" y="63" type="line"/>
      <point x="588.75" y="25" type="line"/>
      <point x="867.0" y="-263" type="line"/>
      <point x="972.75" y="-228" type="line"/>
    </contour>
    <contour>
      <point x="965.25" y="837" type="line"/>
      <point x="965.25" y="1217"/>
      <point x="790.5" y="1476"/>
      <point x="522.0" y="1476" type="curve" smooth="yes"/>
      <point x="262.5" y="1476"/>
      <point x="80.25" y="1217"/>
      <point x="80.25" y="837" type="curve"/>
      <point x="80.25" y="619" type="line"/>
      <point x="80.25" y="239"/>
      <point x="264.0" y="-20"/>
      <point x="523.5" y="-20" type="curve" smooth="yes"/>
      <point x="792.0" y="-20"/>
      <point x="965.25" y="239"/>
      <point x="965.25" y="619" type="curve"/>
    </contour>
    <contour>
      <point x="810.0" y="619" type="line"/>
      <point x="810.0" y="276"/>
      <point x="706.5" y="34"/>
      <point x="523.5" y="34" type="curve" smooth="yes"/>
      <point x="351.75" y="34"/>
      <point x="235.5" y="276"/>
      <point x="235.5" y="619" type="curve" smooth="yes"/>
      <point x="235.5" y="839" type="line" smooth="yes"/>
      <point x="235.5" y="1180"/>
      <point x="350.25" y="1422"/>
      <point x="522.0" y="1422" type="curve" smooth="yes"/>
      <point x="704.25" y="1422"/>
      <point x="810.0" y="1180"/>
      <point x="810.0" y="839" type="curve"/>
    </contour>
    <contour>
      <point x="525.0" y="1600" type="move" name="top"/>
    </contour>
    <contour>
      <point x="523.5" y="-10" type="move" name="bottom"/>
    </contour>
    <contour>
      <point x="1060.5" y="1600" type="move" name="top_dd"/>
    </contour>
    <contour>
      <point x="1060.5" y="-407" type="move" name="bottom_dd"/>
    </contour>
    <contour>
      <point x="1060.5" y="1600" type="move" name="top0315"/>
    </contour>
  </outline>
</glyph>
<glyph name="R" format="1">
  <advance width="939.75"/>
  <unicode hex="0052"/>
  <outline>
    <contour>
      <point x="124.5" y="1456" type="line"/>
      <point x="124.5" y="0" type="line"/>
      <point x="280.5" y="0" type="line"/>
      <point x="280.5" y="1402" type="line"/>
      <point x="487.5" y="1402" type="line" smooth="yes"/>
      <point x="651.0" y="1402"/>
      <point x="717.0" y="1265"/>
      <point x="717.0" y="1036" type="curve" smooth="yes"/>
      <point x="717.0" y="855"/>
      <point x="640.5" y="677"/>
      <point x="488.25" y="677" type="curve" smooth="yes"/>
      <point x="245.25" y="677" type="line"/>
      <point x="246.75" y="623" type="line"/>
      <point x="577.5" y="623" type="line"/>
      <point x="620.25" y="635" type="line"/>
      <point x="779.25" y="663"/>
      <point x="873.0" y="824"/>
      <point x="873.0" y="1036" type="curve" smooth="yes"/>
      <point x="873.0" y="1307"/>
      <point x="737.25" y="1456"/>
      <point x="487.5" y="1456" type="curve" smooth="yes"/>
    </contour>
    <contour>
      <point x="754.5" y="0" type="line"/>
      <point x="921.75" y="0" type="line"/>
      <point x="921.75" y="14" type="line"/>
      <point x="655.5" y="644" type="line"/>
      <point x="492.75" y="642" type="line"/>
    </contour>
    <contour>
      <point x="457.5" y="1612" type="move" name="top"/>
    </contour>
    <contour>
      <point x="458.25" y="10" type="move" name="bottom"/>
    </contour>
    <contour>
      <point x="939.75" y="1600" type="move" name="top_dd"/>
    </contour>
    <contour>
      <point x="939.75" y="-407" type="move" name="bottom_dd"/>
    </contour>
    <contour>
      <point x="939.75" y="1612" type="move" name="top0315"/>
    </contour>
  </outline>
</glyph>
<glyph name="S" format="1">
  <advance width="912.0"/>
  <unicode hex="0053"/>
  <outline>
    <contour>
      <point x="698.25" y="349" type="curve"/>
      <point x="698.25" y="162"/>
      <point x="619.5" y="34"/>
      <point x="473.25" y="34" type="curve" smooth="yes"/>
      <point x="334.5" y="34"/>
      <point x="215.25" y="120"/>
      <point x="215.25" y="411" type="curve"/>
      <point x="59.25" y="411" type="line"/>
      <point x="59.25" y="85"/>
      <point x="270.0" y="-20"/>
      <point x="473.25" y="-20" type="curve" smooth="yes"/>
      <point x="706.5" y="-20"/>
      <point x="855.0" y="113"/>
      <point x="855.0" y="351" type="curve"/>
      <point x="855.0" y="596"/>
      <point x="748.5" y="695"/>
      <point x="497.25" y="770" type="curve"/>
      <point x="326.25" y="860"/>
      <point x="250.5" y="967"/>
      <point x="250.5" y="1122" type="curve"/>
      <point x="250.5" y="1280"/>
      <point x="317.25" y="1422"/>
      <point x="465.75" y="1422" type="curve" smooth="yes"/>
      <point x="625.5" y="1422"/>
      <point x="697.5" y="1261"/>
      <point x="697.5" y="1046" type="curve"/>
      <point x="853.5" y="1046" type="line"/>
      <point x="853.5" y="1303"/>
      <point x="716.25" y="1476"/>
      <point x="465.75" y="1476" type="curve" smooth="yes"/>
      <point x="240.0" y="1476"/>
      <point x="93.75" y="1342"/>
      <point x="93.75" y="1120" type="curve"/>
      <point x="93.75" y="886"/>
      <point x="231.75" y="799"/>
      <point x="447.0" y="718" type="curve" smooth="yes"/>
      <point x="648.75" y="628"/>
      <point x="698.25" y="533"/>
    </contour>
    <contour>
      <point x="465.75" y="1633" type="move" name="top"/>
    </contour>
    <contour>
      <point x="471.0" y="-10" type="move" name="bottom"/>
    </contour>
    <contour>
      <point x="912.0" y="1600" type="move" name="top_dd"/>
    </contour>
    <contour>
      <point x="912.0" y="-407" type="move" name="bottom_dd"/>
    </contour>
    <contour>
      <point x="912.0" y="1633" type="move" name="top0315"/>
    </contour>
  </outline>
</glyph>
<glyph name="T" format="1">
  <advance width="916.5"/>
  <unicode hex="0054"/>
  <outline>
    <contour>
      <point x="536.25" y="1456" type="line"/>
      <point x="381.75" y="1456" type="line"/>
      <point x="381.75" y="0" type="line"/>
      <point x="536.25" y="0" type="line"/>
    </contour>
    <contour>
      <point x="882.0" y="1456" type="line"/>
      <point x="36.75" y="1456" type="line"/>
      <point x="36.75" y="1402" type="line"/>
      <point x="882.0" y="1402" type="line"/>
    </contour>
    <contour>
      <point x="532.5" y="0" type="move" name="right"/>
    </contour>
    <contour>
      <point x="916.5" y="1604" type="move" name="top0315"/>
    </contour>
    <contour>
      <point x="459.0" y="1604" type="move" name="top"/>
    </contour>
    <contour>
      <point x="460.5" y="0" type="move" name="bottom"/>
    </contour>
    <contour>
      <point x="464.25" y="872" type="move" name="cross"/>
    </contour>
    <contour>
      <point x="916.5" y="1600" type="move" name="top_dd"/>
    </contour>
    <contour>
      <point x="916.5" y="-407" type="move" name="bottom_dd"/>
    </contour>
  </outline>
</glyph>
<glyph name="U" format="1">
  <advance width="993.0"/>
  <unicode hex="0055"/>
  <outline>
    <contour>
      <point x="741.0" y="1456" type="line"/>
      <point x="741.0" y="469" type="line" smooth="yes"/>
      <point x="741.0" y="188"/>
      <point x="645.0" y="34"/>
      <point x="498.0" y="34" type="curve" smooth="yes"/>
      <point x="352.5" y="34"/>
      <point x="255.75" y="188"/>
      <point x="255.75" y="469" type="curve" smooth="yes"/>
      <point x="255.75" y="1456" type="line"/>
      <point x="101.25" y="1456" type="line"/>
      <point x="101.25" y="469" type="line"/>
      <point x="101.25" y="142"/>
      <point x="274.5" y="-20"/>
      <point x="498.0" y="-20" type="curve" smooth="yes"/>
      <point x="709.5" y="-20"/>
      <point x="897.0" y="142"/>
      <point x="897.0" y="469" type="curve"/>
      <point x="897.0" y="1456" type="line"/>
    </contour>
    <contour>
      <point x="628.5" y="0" type="move" name="right"/>
    </contour>
    <contour>
      <point x="993.0" y="1612" type="move" name="top0315"/>
    </contour>
    <contour>
      <point x="498.0" y="1612" type="move" name="top"/>
    </contour>
    <contour>
      <point x="498.0" y="0" type="move" name="bottom"/>
    </contour>
    <contour>
      <point x="993.0" y="1600" type="move" name="top_dd"/>
    </contour>
    <contour>
      <point x="705.75" y="33" type="move" name="ogonek"/>
    </contour>
    <contour>
      <point x="993.0" y="-407" type="move" name="bottom_dd"/>
    </contour>
  </outline>
</glyph>
<glyph name="V" format="1">
  <advance width="984.75"/>
  <unicode hex="0056"/>
  <outline>
    <contour>
      <point x="479.25" y="142" type="line"/>
      <point x="441.0" y="0" type="line"/>
      <point x="561.0" y="0" type="line"/>
      <point x="965.25" y="1456" type="line"/>
      <point x="795.75" y="1456" type="line"/>
    </contour>
    <contour>
      <point x="190.5" y="1456" type="line"/>
      <point x="21.0" y="1456" type="line"/>
      <point x="424.5" y="0" type="line"/>
      <point x="544.5" y="0" type="line"/>
      <point x="504.0" y="142" type="line"/>
    </contour>
    <contour>
      <point x="495.0" y="1612" type="move" name="top"/>
    </contour>
    <contour>
      <point x="495.0" y="10" type="move" name="bottom"/>
    </contour>
    <contour>
      <point x="984.75" y="1600" type="move" name="top_dd"/>
    </contour>
    <contour>
      <point x="984.75" y="-407" type="move" name="bottom_dd"/>
    </contour>
    <contour>
      <point x="984.75" y="1612" type="move" name="top0315"/>
    </contour>
  </outline>
</glyph>
<glyph name="W" format="1">
  <advance width="1359.75"/>
  <unicode hex="0057"/>
  <outline>
    <contour>
      <point x="414.0" y="330" type="line"/>
      <point x="336.0" y="0" type="line"/>
      <point x="447.75" y="0" type="line"/>
      <point x="676.5" y="1214" type="line"/>
      <point x="738.0" y="1456" type="line"/>
      <point x="625.5" y="1456" type="line"/>
    </contour>
    <contour>
      <point x="201.0" y="1456" type="line"/>
      <point x="45.75" y="1456" type="line"/>
      <point x="306.75" y="0" type="line"/>
      <point x="417.0" y="0" type="line"/>
      <point x="367.5" y="330" type="line"/>
    </contour>
    <contour>
      <point x="1009.5" y="330" type="line"/>
      <point x="957.0" y="0" type="line"/>
      <point x="1067.25" y="0" type="line"/>
      <point x="1328.25" y="1456" type="line"/>
      <point x="1172.25" y="1456" type="line"/>
    </contour>
    <contour>
      <point x="755.25" y="1456" type="line"/>
      <point x="645.0" y="1456" type="line"/>
      <point x="706.5" y="1214" type="line"/>
      <point x="926.25" y="0" type="line"/>
      <point x="1038.0" y="0" type="line"/>
      <point x="960.75" y="330" type="line"/>
    </contour>
    <contour>
      <point x="693.0" y="1612" type="move" name="top"/>
    </contour>
    <contour>
      <point x="691.5" y="10" type="move" name="bottom"/>
    </contour>
    <contour>
      <point x="1359.75" y="1600" type="move" name="top_dd"/>
    </contour>
    <contour>
      <point x="1359.75" y="-407" type="move" name="bottom_dd"/>
    </contour>
    <contour>
      <point x="1359.75" y="1612" type="move" name="top0315"/>
    </contour>
  </outline>
</glyph>
<glyph name="X" format="1">
  <advance width="968.25"/>
  <unicode hex="0058"/>
  <outline>
    <contour>
      <point x="233.25" y="1456" type="line"/>
      <point x="51.0" y="1456" type="line"/>
      <point x="393.0" y="743" type="line"/>
      <point x="43.5" y="0" type="line"/>
      <point x="227.25" y="0" type="line"/>
      <point x="486.0" y="701" type="line"/>
      <point x="744.0" y="0" type="line"/>
      <point x="927.75" y="0" type="line"/>
      <point x="579.0" y="743" type="line"/>
      <point x="920.25" y="1456" type="line"/>
      <point x="738.0" y="1456" type="line"/>
      <point x="486.0" y="785" type="line"/>
    </contour>
    <contour>
      <point x="831.75" y="0" type="move" name="right"/>
    </contour>
    <contour>
      <point x="968.25" y="1612" type="move" name="top0315"/>
    </contour>
    <contour>
      <point x="489.0" y="1612" type="move" name="top"/>
    </contour>
    <contour>
      <point x="483.0" y="10" type="move" name="bottom"/>
    </contour>
    <contour>
      <point x="485.25" y="748" type="move" name="cross"/>
    </contour>
    <contour>
      <point x="968.25" y="1600" type="move" name="top_dd"/>
    </contour>
    <contour>
      <point x="968.25" y="-407" type="move" name="bottom_dd"/>
    </contour>
  </outline>
</glyph>
<glyph name="Y" format="1">
  <advance width="923.25"/>
  <unicode hex="0059"/>
  <outline>
    <contour>
      <point x="187.5" y="1456" type="line"/>
      <point x="9.75" y="1456" type="line"/>
      <point x="382.5" y="553" type="line"/>
      <point x="382.5" y="0" type="line"/>
      <point x="538.5" y="0" type="line"/>
      <point x="538.5" y="553" type="line"/>
      <point x="911.25" y="1456" type="line"/>
      <point x="734.25" y="1456" type="line"/>
      <point x="460.5" y="602" type="line"/>
    </contour>
    <contour>
      <point x="923.25" y="1601" type="move" name="top0315"/>
    </contour>
    <contour>
      <point x="-47.25" y="1454" type="move" name="tonos"/>
    </contour>
    <contour>
      <point x="464.25" y="1601" type="move" name="top"/>
    </contour>
    <contour>
      <point x="461.25" y="10" type="move" name="bottom"/>
    </contour>
    <contour>
      <point x="460.5" y="583" type="move" name="cross"/>
    </contour>
    <contour>
      <point x="923.25" y="1600" type="move" name="top_dd"/>
    </contour>
    <contour>
      <point x="923.25" y="-407" type="move" name="bottom_dd"/>
    </contour>
  </outline>
</glyph>
<glyph name="Z" format="1">
  <advance width="920.25"/>
  <unicode hex="005A"/>
  <outline>
    <contour>
      <point x="861.0" y="54" type="line"/>
      <point x="123.75" y="54" type="line"/>
      <point x="123.75" y="0" type="line"/>
      <point x="861.0" y="0" type="line"/>
    </contour>
    <contour>
      <point x="837.0" y="1418" type="line"/>
      <point x="837.0" y="1456" type="line"/>
      <point x="740.25" y="1456" type="line"/>
      <point x="64.5" y="44" type="line"/>
      <point x="64.5" y="0" type="line"/>
      <point x="160.5" y="0" type="line"/>
    </contour>
    <contour>
      <point x="771.0" y="1456" type="line"/>
      <point x="72.0" y="1456" type="line"/>
      <point x="72.0" y="1403" type="line"/>
      <point x="771.0" y="1403" type="line"/>
    </contour>
    <contour>
      <point x="462.75" y="1612" type="move" name="top"/>
    </contour>
    <contour>
      <point x="457.5" y="10" type="move" name="bottom"/>
    </contour>
    <contour>
      <point x="920.25" y="1600" type="move" name="top_dd"/>
    </contour>
    <contour>
      <point x="920.25" y="-407" type="move" name="bottom_dd"/>
    </contour>
    <contour>
      <point x="920.25" y="1612" type="move" name="top0315"/>
    </contour>
  </outline>
</glyph>
<glyph name="bracketleft" format="1">
  <advance width="416.25"/>
  <unicode hex="005B"/>
  <outline>
    <contour>
      <point x="397.5" y="1664" type="line"/>
      <point x="107.25" y="1664" type="line"/>
      <point x="107.25" y="-312" type="line"/>
      <point x="397.5" y="-312" type="line"/>
      <point x="397.5" y="-258" type="line"/>
      <point x="257.25" y="-258" type="line"/>
      <point x="257.25" y="1610" type="line"/>
      <point x="397.5" y="1610" type="line"/>
    </contour>
  </outline>
</glyph>
<glyph name="bracketright" format="1">
  <advance width="416.25"/>
  <unicode hex="005D"/>
  <outline>
    <contour>
      <point x="9.0" y="1610" type="line"/>
      <point x="150.0" y="1610" type="line"/>
      <point x="150.0" y="-258" type="line"/>
      <point x="9.0" y="-258" type="line"/>
      <point x="9.0" y="-312" type="line"/>
      <point x="300.0" y="-312" type="line"/>
      <point x="300.0" y="1664" type="line"/>
      <point x="9.0" y="1664" type="line"/>
    </contour>
  </outline>
</glyph>
<glyph name="asciicircum" format="1">
  <advance width="642.75"/>
  <unicode hex="005E"/>
  <outline>
    <contour>
      <point x="330.0" y="1417" type="line"/>
      <point x="359.25" y="1456" type="line"/>
      <point x="270.0" y="1456" type="line"/>
      <point x="45.75" y="729" type="line"/>
      <point x="184.5" y="729" type="line"/>
    </contour>
    <contour>
      <point x="457.5" y="729" type="line"/>
      <point x="595.5" y="729" type="line"/>
      <point x="372.0" y="1456" type="line"/>
      <point x="282.0" y="1456" type="line"/>
      <point x="312.0" y="1417" type="line"/>
    </contour>
  </outline>
</glyph>
<glyph name="underscore" format="1">
  <advance width="699.75"/>
  <unicode hex="005F"/>
  <outline>
    <contour>
      <point x="696.75" y="0" type="line"/>
      <point x="3.75" y="0" type="line"/>
      <point x="3.75" y="-54" type="line"/>
      <point x="696.75" y="-54" type="line"/>
    </contour>
    <contour>
      <point x="346.5" y="157" type="move" name="_bottom"/>
    </contour>
  </outline>
</glyph>
<glyph name="grave" format="1">
  <advance width="483.0"/>
  <unicode hex="0060"/>
  <outline>
    <contour>
      <point x="216.0" y="1536" type="line"/>
      <point x="35.25" y="1536" type="line"/>
      <point x="234.0" y="1270" type="line"/>
      <point x="361.5" y="1270" type="line"/>
    </contour>
    <contour>
      <point x="277.5" y="1293" type="move" name="_top"/>
    </contour>
    <contour>
      <point x="277.5" y="1543" type="move" name="mkmktop_acc"/>
    </contour>
  </outline>
</glyph>
<glyph name="a" format="1">
  <advance width="838.5"/>
  <unicode hex="0061"/>
  <outline>
    <contour>
      <point x="578.25" y="203" type="line"/>
      <point x="578.25" y="132"/>
      <point x="586.5" y="52"/>
      <point x="601.5" y="0" type="curve"/>
      <point x="757.5" y="0" type="line"/>
      <point x="757.5" y="9" type="line"/>
      <point x="738.0" y="53"/>
      <point x="728.25" y="140"/>
      <point x="728.25" y="218" type="curve" smooth="yes"/>
      <point x="728.25" y="760" type="line"/>
      <point x="728.25" y="988"/>
      <point x="602.25" y="1102"/>
      <point x="424.5" y="1102" type="curve" smooth="yes"/>
      <point x="225.75" y="1102"/>
      <point x="99.75" y="955"/>
      <point x="99.75" y="786" type="curve"/>
      <point x="249.75" y="784" type="line"/>
      <point x="249.75" y="934"/>
      <point x="315.75" y="1048"/>
      <point x="415.5" y="1048" type="curve" smooth="yes"/>
      <point x="522.75" y="1048"/>
      <point x="578.25" y="942"/>
      <point x="578.25" y="762" type="curve"/>
    </contour>
    <contour>
      <point x="603.0" y="604" type="line"/>
      <point x="447.0" y="604" type="line"/>
      <point x="225.75" y="604"/>
      <point x="83.25" y="467"/>
      <point x="83.25" y="274" type="curve" smooth="yes"/>
      <point x="83.25" y="102"/>
      <point x="192.75" y="-20"/>
      <point x="360.0" y="-20" type="curve" smooth="yes"/>
      <point x="533.25" y="-20"/>
      <point x="642.75" y="138"/>
      <point x="655.5" y="287" type="curve"/>
      <point x="591.75" y="337" type="line"/>
      <point x="591.75" y="152"/>
      <point x="504.75" y="33"/>
      <point x="382.5" y="33" type="curve" smooth="yes"/>
      <point x="282.75" y="33"/>
      <point x="233.25" y="139"/>
      <point x="233.25" y="270" type="curve" smooth="yes"/>
      <point x="233.25" y="434"/>
      <point x="318.75" y="549"/>
      <point x="471.75" y="549" type="curve"/>
      <point x="604.5" y="549" type="line"/>
    </contour>
    <contour>
      <point x="838.5" y="1292" type="move" name="top0315"/>
    </contour>
    <contour>
      <point x="659.25" y="654" type="move" name="rhotichook"/>
    </contour>
    <contour>
      <point x="436.5" y="1292" type="move" name="top"/>
    </contour>
    <contour>
      <point x="375.75" y="0" type="move" name="bottom"/>
    </contour>
    <contour>
      <point x="838.5" y="1600" type="move" name="top_dd"/>
    </contour>
    <contour>
      <point x="730.5" y="0" type="move" name="ogonek"/>
    </contour>
    <contour>
      <point x="838.5" y="-407" type="move" name="bottom_dd"/>
    </contour>
    <contour>
      <point x="525.0" y="1263" type="move" name="rhalfring"/>
    </contour>
  </outline>
</glyph>
<glyph name="b" format="1">
  <advance width="864.75"/>
  <unicode hex="0062"/>
  <outline>
    <contour>
      <point x="102.75" y="1536" type="line"/>
      <point x="102.75" y="0" type="line"/>
      <point x="240.0" y="0" type="line"/>
      <point x="252.75" y="210" type="line"/>
      <point x="252.75" y="1536" type="line"/>
    </contour>
    <contour>
      <point x="797.25" y="552" type="line"/>
      <point x="797.25" y="893"/>
      <point x="684.0" y="1102"/>
      <point x="479.25" y="1102" type="curve" smooth="yes"/>
      <point x="271.5" y="1102"/>
      <point x="172.5" y="948"/>
      <point x="150.0" y="745" type="curve"/>
      <point x="150.0" y="304" type="line"/>
      <point x="172.5" y="133"/>
      <point x="271.5" y="-20"/>
      <point x="480.75" y="-20" type="curve" smooth="yes"/>
      <point x="682.5" y="-20"/>
      <point x="797.25" y="201"/>
      <point x="797.25" y="531" type="curve" smooth="yes"/>
    </contour>
    <contour>
      <point x="647.25" y="531" type="line"/>
      <point x="647.25" y="243"/>
      <point x="588.75" y="34"/>
      <point x="442.5" y="34" type="curve" smooth="yes"/>
      <point x="308.25" y="34"/>
      <point x="245.25" y="166"/>
      <point x="222.0" y="329" type="curve"/>
      <point x="222.0" y="709" type="line"/>
      <point x="244.5" y="843"/>
      <point x="308.25" y="1048"/>
      <point x="441.0" y="1048" type="curve" smooth="yes"/>
      <point x="595.5" y="1048"/>
      <point x="647.25" y="839"/>
      <point x="647.25" y="552" type="curve" smooth="yes"/>
    </contour>
    <contour>
      <point x="480.0" y="1612" type="move" name="top"/>
    </contour>
    <contour>
      <point x="450.0" y="-10" type="move" name="bottom"/>
    </contour>
    <contour>
      <point x="864.75" y="1600" type="move" name="top_dd"/>
    </contour>
    <contour>
      <point x="864.75" y="-407" type="move" name="bottom_dd"/>
    </contour>
    <contour>
      <point x="864.75" y="1612" type="move" name="top0315"/>
    </contour>
  </outline>
</glyph>
<glyph name="c" format="1">
  <advance width="807.0"/>
  <unicode hex="0063"/>
  <outline>
    <contour>
      <point x="433.5" y="34" type="curve" smooth="yes"/>
      <point x="264.0" y="34"/>
      <point x="219.0" y="249"/>
      <point x="219.0" y="520" type="curve" smooth="yes"/>
      <point x="219.0" y="562" type="line" smooth="yes"/>
      <point x="219.0" y="831"/>
      <point x="265.5" y="1048"/>
      <point x="433.5" y="1048" type="curve"/>
      <point x="542.25" y="1048"/>
      <point x="609.75" y="940"/>
      <point x="617.25" y="725" type="curve"/>
      <point x="759.0" y="725" type="line"/>
      <point x="751.5" y="973"/>
      <point x="627.0" y="1102"/>
      <point x="433.5" y="1102" type="curve" smooth="yes"/>
      <point x="186.0" y="1102"/>
      <point x="69.0" y="879"/>
      <point x="69.0" y="562" type="curve" smooth="yes"/>
      <point x="69.0" y="520" type="line" smooth="yes"/>
      <point x="69.0" y="203"/>
      <point x="185.25" y="-20"/>
      <point x="433.5" y="-20" type="curve"/>
      <point x="606.75" y="-20"/>
      <point x="751.5" y="108"/>
      <point x="759.0" y="328" type="curve"/>
      <point x="617.25" y="328" type="line"/>
      <point x="609.75" y="121"/>
      <point x="529.5" y="34"/>
    </contour>
    <contour>
      <point x="398.25" y="-10" type="move" name="bottom"/>
    </contour>
    <contour>
      <point x="807.0" y="1290" type="move" name="top0315"/>
    </contour>
    <contour>
      <point x="398.25" y="1290" type="move" name="top"/>
    </contour>
    <contour>
      <point x="398.25" y="1290" type="move" name="marktop"/>
    </contour>
    <contour>
      <point x="807.0" y="1600" type="move" name="top_dd"/>
    </contour>
    <contour>
      <point x="807.0" y="-407" type="move" name="bottom_dd"/>
    </contour>
  </outline>
</glyph>
<glyph name="d" format="1">
  <advance width="869.25"/>
  <unicode hex="0064"/>
  <outline>
    <contour>
      <point x="611.25" y="210" type="line"/>
      <point x="624.0" y="0" type="line"/>
      <point x="761.25" y="0" type="line"/>
      <point x="761.25" y="1536" type="line"/>
      <point x="611.25" y="1536" type="line"/>
    </contour>
    <contour>
      <point x="69.0" y="531" type="line"/>
      <point x="69.0" y="201"/>
      <point x="199.5" y="-20"/>
      <point x="390.0" y="-20" type="curve" smooth="yes"/>
      <point x="598.5" y="-20"/>
      <point x="698.25" y="133"/>
      <point x="720.0" y="304" type="curve"/>
      <point x="720.0" y="745" type="line"/>
      <point x="698.25" y="948"/>
      <point x="598.5" y="1102"/>
      <point x="391.5" y="1102" type="curve" smooth="yes"/>
      <point x="198.0" y="1102"/>
      <point x="69.0" y="893"/>
      <point x="69.0" y="552" type="curve" smooth="yes"/>
    </contour>
    <contour>
      <point x="219.0" y="552" type="line"/>
      <point x="219.0" y="839"/>
      <point x="281.25" y="1048"/>
      <point x="429.75" y="1048" type="curve" smooth="yes"/>
      <point x="562.5" y="1048"/>
      <point x="625.5" y="843"/>
      <point x="648.75" y="709" type="curve"/>
      <point x="648.75" y="329" type="line"/>
      <point x="618.0" y="166"/>
      <point x="562.5" y="34"/>
      <point x="428.25" y="34" type="curve" smooth="yes"/>
      <point x="281.25" y="34"/>
      <point x="219.0" y="243"/>
      <point x="219.0" y="531" type="curve" smooth="yes"/>
    </contour>
    <contour>
      <point x="869.25" y="1620" type="move" name="top0315"/>
    </contour>
    <contour>
      <point x="412.5" y="1620" type="move" name="top"/>
    </contour>
    <contour>
      <point x="464.25" y="0" type="move" name="bottom"/>
    </contour>
    <contour>
      <point x="660.75" y="1306" type="move" name="cross"/>
    </contour>
    <contour>
      <point x="837.0" y="1536" type="move" name="caron"/>
    </contour>
    <contour>
      <point x="869.25" y="1600" type="move" name="top_dd"/>
    </contour>
    <contour>
      <point x="869.25" y="-407" type="move" name="bottom_dd"/>
    </contour>
  </outline>
</glyph>
<glyph name="e" format="1">
  <advance width="819.0"/>
  <unicode hex="0065"/>
  <outline>
    <contour>
      <point x="444.75" y="-20" type="curve"/>
      <point x="609.0" y="-20"/>
      <point x="702.0" y="52"/>
      <point x="754.5" y="155" type="curve"/>
      <point x="663.75" y="182" type="line"/>
      <point x="615.0" y="66"/>
      <point x="551.25" y="33"/>
      <point x="453.0" y="33" type="curve" smooth="yes"/>
      <point x="304.5" y="33"/>
      <point x="220.5" y="248"/>
      <point x="220.5" y="518" type="curve" smooth="yes"/>
      <point x="220.5" y="562" type="line" smooth="yes"/>
      <point x="220.5" y="830"/>
      <point x="305.25" y="1048"/>
      <point x="426.75" y="1048" type="curve"/>
      <point x="566.25" y="1048"/>
      <point x="606.0" y="861"/>
      <point x="613.5" y="644" type="curve"/>
      <point x="613.5" y="631" type="line"/>
      <point x="159.0" y="631" type="line"/>
      <point x="159.0" y="577" type="line"/>
      <point x="763.5" y="577" type="line"/>
      <point x="763.5" y="640" type="line" smooth="yes"/>
      <point x="763.5" y="915"/>
      <point x="665.25" y="1102"/>
      <point x="426.75" y="1102" type="curve" smooth="yes"/>
      <point x="244.5" y="1102"/>
      <point x="70.5" y="878"/>
      <point x="70.5" y="562" type="curve" smooth="yes"/>
      <point x="70.5" y="518" type="line" smooth="yes"/>
      <point x="70.5" y="204"/>
      <point x="215.25" y="-20"/>
    </contour>
    <contour>
      <point x="819.0" y="1291" type="move" name="top0315"/>
    </contour>
    <contour>
      <point x="682.5" y="654" type="move" name="rhotichook"/>
    </contour>
    <contour>
      <point x="423.75" y="1291" type="move" name="top"/>
    </contour>
    <contour>
      <point x="426.0" y="4" type="move" name="bottom"/>
    </contour>
    <contour>
      <point x="819.0" y="1600" type="move" name="top_dd"/>
    </contour>
    <contour>
      <point x="607.5" y="58" type="move" name="ogonek"/>
    </contour>
    <contour>
      <point x="819.0" y="-407" type="move" name="bottom_dd"/>
    </contour>
  </outline>
</glyph>
<glyph name="f" format="1">
  <advance width="539.25"/>
  <unicode hex="0066"/>
  <outline>
    <contour>
      <point x="321.75" y="0" type="line"/>
      <point x="321.75" y="1236" type="line"/>
      <point x="321.75" y="1405"/>
      <point x="372.0" y="1503"/>
      <point x="459.0" y="1503" type="curve" smooth="yes"/>
      <point x="483.75" y="1503"/>
      <point x="512.25" y="1498"/>
      <point x="532.5" y="1488" type="curve"/>
      <point x="540.0" y="1540" type="line"/>
      <point x="509.25" y="1553"/>
      <point x="476.25" y="1557"/>
      <point x="444.75" y="1557" type="curve" smooth="yes"/>
      <point x="275.25" y="1557"/>
      <point x="171.75" y="1443"/>
      <point x="171.75" y="1236" type="curve"/>
      <point x="171.75" y="0" type="line"/>
    </contour>
    <contour>
      <point x="489.75" y="1082" type="line"/>
      <point x="45.0" y="1082" type="line"/>
      <point x="45.0" y="1027" type="line"/>
      <point x="489.75" y="1027" type="line"/>
    </contour>
    <contour>
      <point x="375.0" y="1680" type="move" name="top"/>
    </contour>
    <contour>
      <point x="247.5" y="10" type="move" name="bottom"/>
    </contour>
    <contour>
      <point x="539.25" y="1600" type="move" name="top_dd"/>
    </contour>
    <contour>
      <point x="539.25" y="-407" type="move" name="bottom_dd"/>
    </contour>
    <contour>
      <point x="539.25" y="1680" type="move" name="top0315"/>
    </contour>
  </outline>
</glyph>
<glyph name="g" format="1">
  <advance width="864.75"/>
  <unicode hex="0067"/>
  <outline>
    <contour>
      <point x="627.0" y="1082" type="line"/>
      <point x="612.75" y="844" type="line"/>
      <point x="612.75" y="15" type="line" smooth="yes"/>
      <point x="612.75" y="-228"/>
      <point x="529.5" y="-383"/>
      <point x="403.5" y="-383" type="curve" smooth="yes"/>
      <point x="333.0" y="-383"/>
      <point x="255.75" y="-324"/>
      <point x="187.5" y="-218" type="curve"/>
      <point x="110.25" y="-254" type="line"/>
      <point x="184.5" y="-361"/>
      <point x="334.5" y="-436"/>
      <point x="414.75" y="-436" type="curve" smooth="yes"/>
      <point x="618.75" y="-436"/>
      <point x="762.75" y="-262"/>
      <point x="762.75" y="15" type="curve" smooth="yes"/>
      <point x="762.75" y="1082" type="line"/>
    </contour>
    <contour>
      <point x="70.5" y="531" type="line"/>
      <point x="70.5" y="201"/>
      <point x="195.75" y="-20"/>
      <point x="390.75" y="-20" type="curve" smooth="yes"/>
      <point x="599.25" y="-20"/>
      <point x="699.0" y="133"/>
      <point x="721.5" y="304" type="curve"/>
      <point x="721.5" y="745" type="line"/>
      <point x="699.0" y="948"/>
      <point x="599.25" y="1102"/>
      <point x="392.25" y="1102" type="curve" smooth="yes"/>
      <point x="194.25" y="1102"/>
      <point x="70.5" y="893"/>
      <point x="70.5" y="552" type="curve" smooth="yes"/>
    </contour>
    <contour>
      <point x="220.5" y="552" type="line"/>
      <point x="220.5" y="839"/>
      <point x="282.0" y="1048"/>
      <point x="430.5" y="1048" type="curve" smooth="yes"/>
      <point x="563.25" y="1048"/>
      <point x="626.25" y="843"/>
      <point x="649.5" y="709" type="curve"/>
      <point x="649.5" y="329" type="line"/>
      <point x="618.75" y="166"/>
      <point x="563.25" y="34"/>
      <point x="429.0" y="34" type="curve" smooth="yes"/>
      <point x="282.0" y="34"/>
      <point x="220.5" y="243"/>
      <point x="220.5" y="531" type="curve" smooth="yes"/>
    </contour>
    <contour>
      <point x="416.25" y="1290" type="move" name="top"/>
    </contour>
    <contour>
      <point x="415.5" y="-447" type="move" name="bottom"/>
    </contour>
    <contour>
      <point x="864.75" y="1600" type="move" name="top_dd"/>
    </contour>
    <contour>
      <point x="864.75" y="-407" type="move" name="bottom_dd"/>
    </contour>
    <contour>
      <point x="864.75" y="1290" type="move" name="top0315"/>
    </contour>
  </outline>
</glyph>
<glyph name="h" format="1">
  <advance width="846.75"/>
  <unicode hex="0068"/>
  <outline>
    <contour>
      <point x="252.75" y="1536" type="line"/>
      <point x="102.75" y="1536" type="line"/>
      <point x="102.75" y="0" type="line"/>
      <point x="252.75" y="0" type="line"/>
    </contour>
    <contour>
      <point x="216.75" y="634" type="line"/>
      <point x="216.75" y="763"/>
      <point x="310.5" y="1049"/>
      <point x="441.0" y="1049" type="curve"/>
      <point x="543.75" y="1049"/>
      <point x="597.0" y="975"/>
      <point x="597.0" y="700" type="curve" smooth="yes"/>
      <point x="597.0" y="0" type="line"/>
      <point x="747.0" y="0" type="line"/>
      <point x="747.0" y="700" type="line" smooth="yes"/>
      <point x="747.0" y="987"/>
      <point x="645.75" y="1102"/>
      <point x="486.75" y="1102" type="curve" smooth="yes"/>
      <point x="288.0" y="1102"/>
      <point x="155.25" y="904"/>
      <point x="155.25" y="691" type="curve"/>
    </contour>
    <contour>
      <point x="747.0" y="0" type="move" name="right"/>
    </contour>
    <contour>
      <point x="846.75" y="1611" type="move" name="top0315"/>
    </contour>
    <contour>
      <point x="378.0" y="1611" type="move" name="top"/>
    </contour>
    <contour>
      <point x="442.5" y="10" type="move" name="bottom"/>
    </contour>
    <contour>
      <point x="210.75" y="1306" type="move" name="cross"/>
    </contour>
    <contour>
      <point x="846.75" y="1600" type="move" name="top_dd"/>
    </contour>
    <contour>
      <point x="846.75" y="-407" type="move" name="bottom_dd"/>
    </contour>
  </outline>
</glyph>
<glyph name="i" format="1">
  <advance width="379.5"/>
  <unicode hex="0069"/>
  <outline>
    <contour>
      <point x="264.75" y="1082" type="line"/>
      <point x="114.75" y="1082" type="line"/>
      <point x="114.75" y="0" type="line"/>
      <point x="264.75" y="0" type="line"/>
    </contour>
    <contour>
      <point x="105.0" y="1420" type="curve" smooth="yes"/>
      <point x="105.0" y="1389"/>
      <point x="134.25" y="1365"/>
      <point x="191.25" y="1365" type="curve" smooth="yes"/>
      <point x="248.25" y="1365"/>
      <point x="278.25" y="1389"/>
      <point x="278.25" y="1420" type="curve" smooth="yes"/>
      <point x="278.25" y="1451"/>
      <point x="248.25" y="1476"/>
      <point x="191.25" y="1476" type="curve" smooth="yes"/>
      <point x="134.25" y="1476"/>
      <point x="105.0" y="1451"/>
    </contour>
    <contour>
      <point x="379.5" y="1600" type="move" name="top0315"/>
    </contour>
    <contour>
      <point x="213.0" y="654" type="move" name="rhotichook"/>
    </contour>
    <contour>
      <point x="191.25" y="1600" type="move" name="top"/>
    </contour>
    <contour>
      <point x="189.75" y="10" type="move" name="bottom"/>
    </contour>
    <contour>
      <point x="379.5" y="1600" type="move" name="top_dd"/>
    </contour>
    <contour>
      <point x="252.0" y="0" type="move" name="ogonek"/>
    </contour>
    <contour>
      <point x="379.5" y="-407" type="move" name="bottom_dd"/>
    </contour>
  </outline>
</glyph>
<glyph name="j" format="1">
  <advance width="371.25"/>
  <unicode hex="006A"/>
  <outline>
    <contour>
      <point x="106.5" y="1082" type="line"/>
      <point x="106.5" y="-129" type="line"/>
      <point x="106.5" y="-290"/>
      <point x="75.75" y="-383"/>
      <point x="20.25" y="-383" type="curve" smooth="yes"/>
      <point x="3.75" y="-383"/>
      <point x="-23.25" y="-373"/>
      <point x="-42.75" y="-365" type="curve"/>
      <point x="-42.75" y="-417" type="line"/>
      <point x="-19.5" y="-430"/>
      <point x="18.75" y="-437"/>
      <point x="44.25" y="-437" type="curve" smooth="yes"/>
      <point x="187.5" y="-437"/>
      <point x="256.5" y="-328"/>
      <point x="256.5" y="-129" type="curve"/>
      <point x="256.5" y="1082" type="line"/>
    </contour>
    <contour>
      <point x="92.25" y="1420" type="curve" smooth="yes"/>
      <point x="92.25" y="1389"/>
      <point x="121.5" y="1365"/>
      <point x="178.5" y="1365" type="curve" smooth="yes"/>
      <point x="235.5" y="1365"/>
      <point x="265.5" y="1389"/>
      <point x="265.5" y="1420" type="curve" smooth="yes"/>
      <point x="265.5" y="1451"/>
      <point x="235.5" y="1476"/>
      <point x="178.5" y="1476" type="curve" smooth="yes"/>
      <point x="121.5" y="1476"/>
      <point x="92.25" y="1451"/>
    </contour>
    <contour>
      <point x="167.25" y="1600" type="move" name="top"/>
    </contour>
    <contour>
      <point x="142.5" y="-459" type="move" name="bottom"/>
    </contour>
    <contour>
      <point x="371.25" y="1600" type="move" name="top_dd"/>
    </contour>
    <contour>
      <point x="371.25" y="-407" type="move" name="bottom_dd"/>
    </contour>
    <contour>
      <point x="371.25" y="1600" type="move" name="top0315"/>
    </contour>
  </outline>
</glyph>
<glyph name="k" format="1">
  <advance width="784.5"/>
  <unicode hex="006B"/>
  <outline>
    <contour>
      <point x="253.5" y="1536" type="line"/>
      <point x="103.5" y="1536" type="line"/>
      <point x="103.5" y="0" type="line"/>
      <point x="253.5" y="0" type="line"/>
    </contour>
    <contour>
      <point x="746.25" y="1082" type="line"/>
      <point x="564.75" y="1082" type="line"/>
      <point x="325.5" y="627" type="line"/>
      <point x="180.75" y="479" type="line"/>
      <point x="192.0" y="440" type="line"/>
      <point x="398.25" y="583" type="line"/>
    </contour>
    <contour>
      <point x="609.0" y="0" type="line"/>
      <point x="784.5" y="0" type="line"/>
      <point x="407.25" y="650" type="line"/>
      <point x="330.0" y="608" type="line"/>
    </contour>
    <contour>
      <point x="412.5" y="1612" type="move" name="marktop"/>
    </contour>
    <contour>
      <point x="687.0" y="1612" type="move" name="top0315"/>
    </contour>
    <contour>
      <point x="412.5" y="1612" type="move" name="top"/>
    </contour>
    <contour>
      <point x="397.5" y="114" type="move" name="bottom"/>
    </contour>
    <contour>
      <point x="180.0" y="1289" type="move" name="cross"/>
    </contour>
    <contour>
      <point x="784.5" y="1600" type="move" name="top_dd"/>
    </contour>
    <contour>
      <point x="784.5" y="-407" type="move" name="bottom_dd"/>
    </contour>
  </outline>
</glyph>
<glyph name="m" format="1">
  <advance width="1343.25"/>
  <unicode hex="006D"/>
  <outline>
    <contour>
      <point x="252.75" y="850" type="line"/>
      <point x="244.5" y="1082" type="line"/>
      <point x="102.75" y="1082" type="line"/>
      <point x="102.75" y="0" type="line"/>
      <point x="252.75" y="0" type="line"/>
    </contour>
    <contour>
      <point x="222.0" y="634" type="line"/>
      <point x="222.0" y="763"/>
      <point x="270.0" y="1049"/>
      <point x="428.25" y="1049" type="curve" smooth="yes"/>
      <point x="531.0" y="1049"/>
      <point x="596.25" y="979"/>
      <point x="596.25" y="720" type="curve" smooth="yes"/>
      <point x="596.25" y="0" type="line"/>
      <point x="746.25" y="0" type="line"/>
      <point x="746.25" y="720" type="line" smooth="yes"/>
      <point x="746.25" y="993"/>
      <point x="633.75" y="1102"/>
      <point x="483.75" y="1102" type="curve" smooth="yes"/>
      <point x="262.5" y="1102"/>
      <point x="152.25" y="904"/>
      <point x="152.25" y="691" type="curve"/>
    </contour>
    <contour>
      <point x="744.75" y="720" type="line"/>
      <point x="744.75" y="836"/>
      <point x="807.75" y="1046"/>
      <point x="922.5" y="1049" type="curve" smooth="yes"/>
      <point x="1025.25" y="1051"/>
      <point x="1090.5" y="975"/>
      <point x="1090.5" y="700" type="curve" smooth="yes"/>
      <point x="1090.5" y="0" type="line"/>
      <point x="1240.5" y="0" type="line"/>
      <point x="1240.5" y="700" type="line" smooth="yes"/>
      <point x="1240.5" y="987"/>
      <point x="1142.25" y="1102"/>
      <point x="967.5" y="1102" type="curve" smooth="yes"/>
      <point x="756.75" y="1102"/>
      <point x="644.25" y="936"/>
      <point x="644.25" y="753" type="curve"/>
    </contour>
    <contour>
      <point x="671.25" y="10" type="move" name="bottom"/>
    </contour>
    <contour>
      <point x="1343.25" y="1290" type="move" name="top0315"/>
    </contour>
    <contour>
      <point x="682.5" y="1290" type="move" name="top"/>
    </contour>
    <contour>
      <point x="682.5" y="1290" type="move" name="marktop"/>
    </contour>
    <contour>
      <point x="1343.25" y="1600" type="move" name="top_dd"/>
    </contour>
    <contour>
      <point x="1343.25" y="-407" type="move" name="bottom_dd"/>
    </contour>
  </outline>
</glyph>
<glyph name="n" format="1">
  <advance width="849.0"/>
  <unicode hex="006E"/>
  <outline>
    <contour>
      <point x="252.75" y="851" type="line"/>
      <point x="244.5" y="1082" type="line"/>
      <point x="102.75" y="1082" type="line"/>
      <point x="102.75" y="0" type="line"/>
      <point x="252.75" y="0" type="line"/>
    </contour>
    <contour>
      <point x="216.75" y="634" type="line"/>
      <point x="216.75" y="763"/>
      <point x="310.5" y="1049"/>
      <point x="441.0" y="1049" type="curve" smooth="yes"/>
      <point x="543.75" y="1049"/>
      <point x="597.0" y="975"/>
      <point x="597.0" y="700" type="curve" smooth="yes"/>
      <point x="597.0" y="0" type="line"/>
      <point x="747.0" y="0" type="line"/>
      <point x="747.0" y="700" type="line" smooth="yes"/>
      <point x="747.0" y="987"/>
      <point x="645.75" y="1102"/>
      <point x="486.75" y="1102" type="curve" smooth="yes"/>
      <point x="288.0" y="1102"/>
      <point x="155.25" y="904"/>
      <point x="155.25" y="691" type="curve"/>
    </contour>
    <contour>
      <point x="746.25" y="0" type="move" name="right"/>
    </contour>
    <contour>
      <point x="420.75" y="10" type="move" name="bottom"/>
    </contour>
    <contour>
      <point x="429.0" y="1290" type="move" name="top"/>
    </contour>
    <contour>
      <point x="429.0" y="1290" type="move" name="marktop"/>
    </contour>
    <contour>
      <point x="849.0" y="-407" type="move" name="bottom_dd"/>
    </contour>
    <contour>
      <point x="-23.25" y="1536" type="move" name="caron"/>
    </contour>
    <contour>
      <point x="849.0" y="1600" type="move" name="top_dd"/>
    </contour>
    <contour>
      <point x="849.0" y="1290" type="move" name="top0315"/>
    </contour>
  </outline>
</glyph>
<glyph name="o" format="1">
  <advance width="879.75"/>
  <unicode hex="006F"/>
  <outline>
    <contour>
      <point x="69.0" y="520" type="line"/>
      <point x="69.0" y="203"/>
      <point x="210.75" y="-20"/>
      <point x="440.25" y="-20" type="curve" smooth="yes"/>
      <point x="669.75" y="-20"/>
      <point x="810.75" y="203"/>
      <point x="810.75" y="520" type="curve"/>
      <point x="810.75" y="562" type="line"/>
      <point x="810.75" y="879"/>
      <point x="669.75" y="1102"/>
      <point x="438.75" y="1102" type="curve" smooth="yes"/>
      <point x="210.75" y="1102"/>
      <point x="69.0" y="879"/>
      <point x="69.0" y="562" type="curve"/>
    </contour>
    <contour>
      <point x="219.0" y="562" type="line"/>
      <point x="219.0" y="815"/>
      <point x="291.0" y="1048"/>
      <point x="438.75" y="1048" type="curve" smooth="yes"/>
      <point x="588.0" y="1048"/>
      <point x="660.75" y="815"/>
      <point x="660.75" y="562" type="curve"/>
      <point x="660.75" y="520" type="line"/>
      <point x="660.75" y="261"/>
      <point x="588.0" y="34"/>
      <point x="440.25" y="34" type="curve" smooth="yes"/>
      <point x="291.0" y="34"/>
      <point x="219.0" y="261"/>
      <point x="219.0" y="520" type="curve"/>
    </contour>
    <contour>
      <point x="439.5" y="-10" type="move" name="bottom"/>
    </contour>
    <contour>
      <point x="744.75" y="654" type="move" name="rhotichook"/>
    </contour>
    <contour>
      <point x="432.0" y="1290" type="move" name="top"/>
    </contour>
    <contour>
      <point x="879.75" y="1290" type="move" name="top0315"/>
    </contour>
    <contour>
      <point x="879.75" y="1600" type="move" name="top_dd"/>
    </contour>
    <contour>
      <point x="879.75" y="-407" type="move" name="bottom_dd"/>
    </contour>
  </outline>
</glyph>
<glyph name="p" format="1">
  <advance width="864.75"/>
  <unicode hex="0070"/>
  <outline>
    <contour>
      <point x="252.75" y="874" type="line"/>
      <point x="239.25" y="1082" type="line"/>
      <point x="102.75" y="1082" type="line"/>
      <point x="102.75" y="-416" type="line"/>
      <point x="252.75" y="-416" type="line"/>
    </contour>
    <contour>
      <point x="795.75" y="552" type="line"/>
      <point x="795.75" y="893"/>
      <point x="683.25" y="1102"/>
      <point x="477.75" y="1102" type="curve" smooth="yes"/>
      <point x="270.0" y="1102"/>
      <point x="164.25" y="948"/>
      <point x="141.75" y="745" type="curve"/>
      <point x="141.75" y="305" type="line"/>
      <point x="164.25" y="133"/>
      <point x="270.0" y="-20"/>
      <point x="480.0" y="-20" type="curve" smooth="yes"/>
      <point x="681.75" y="-20"/>
      <point x="795.75" y="201"/>
      <point x="795.75" y="531" type="curve" smooth="yes"/>
    </contour>
    <contour>
      <point x="645.75" y="531" type="line"/>
      <point x="645.75" y="243"/>
      <point x="580.5" y="34"/>
      <point x="433.5" y="34" type="curve" smooth="yes"/>
      <point x="300.0" y="34"/>
      <point x="243.75" y="166"/>
      <point x="213.75" y="330" type="curve"/>
      <point x="213.75" y="709" type="line"/>
      <point x="236.25" y="843"/>
      <point x="300.0" y="1048"/>
      <point x="432.0" y="1048" type="curve" smooth="yes"/>
      <point x="580.5" y="1048"/>
      <point x="645.75" y="839"/>
      <point x="645.75" y="552" type="curve" smooth="yes"/>
    </contour>
    <contour>
      <point x="176.25" y="-407" type="move" name="bottom"/>
    </contour>
    <contour>
      <point x="864.75" y="1280" type="move" name="top0315"/>
    </contour>
    <contour>
      <point x="475.5" y="1280" type="move" name="top"/>
    </contour>
    <contour>
      <point x="475.5" y="1280" type="move" name="marktop"/>
    </contour>
    <contour>
      <point x="864.75" y="1600" type="move" name="top_dd"/>
    </contour>
    <contour>
      <point x="864.75" y="-407" type="move" name="bottom_dd"/>
    </contour>
  </outline>
</glyph>
<glyph name="q" format="1">
  <advance width="876.75"/>
  <unicode hex="0071"/>
  <outline>
    <contour>
      <point x="610.5" y="-416" type="line"/>
      <point x="760.5" y="-416" type="line"/>
      <point x="760.5" y="1082" type="line"/>
      <point x="623.25" y="1082" type="line"/>
      <point x="610.5" y="874" type="line"/>
    </contour>
    <contour>
      <point x="69.0" y="531" type="line"/>
      <point x="69.0" y="201"/>
      <point x="191.25" y="-20"/>
      <point x="393.0" y="-20" type="curve" smooth="yes"/>
      <point x="601.5" y="-20"/>
      <point x="705.75" y="133"/>
      <point x="727.5" y="304" type="curve"/>
      <point x="727.5" y="745" type="line"/>
      <point x="705.75" y="948"/>
      <point x="601.5" y="1102"/>
      <point x="394.5" y="1102" type="curve" smooth="yes"/>
      <point x="189.75" y="1102"/>
      <point x="69.0" y="893"/>
      <point x="69.0" y="552" type="curve" smooth="yes"/>
    </contour>
    <contour>
      <point x="219.0" y="552" type="line"/>
      <point x="219.0" y="839"/>
      <point x="284.25" y="1048"/>
      <point x="432.75" y="1048" type="curve" smooth="yes"/>
      <point x="565.5" y="1048"/>
      <point x="633.0" y="834"/>
      <point x="656.25" y="709" type="curve"/>
      <point x="656.25" y="329" type="line"/>
      <point x="625.5" y="166"/>
      <point x="565.5" y="34"/>
      <point x="431.25" y="34" type="curve" smooth="yes"/>
      <point x="284.25" y="34"/>
      <point x="219.0" y="243"/>
      <point x="219.0" y="531" type="curve" smooth="yes"/>
    </contour>
    <contour>
      <point x="686.25" y="-407" type="move" name="bottom"/>
    </contour>
    <contour>
      <point x="876.75" y="1290" type="move" name="top0315"/>
    </contour>
    <contour>
      <point x="402.75" y="1290" type="move" name="top"/>
    </contour>
    <contour>
      <point x="402.75" y="1290" type="move" name="marktop"/>
    </contour>
    <contour>
      <point x="876.75" y="1600" type="move" name="top_dd"/>
    </contour>
    <contour>
      <point x="876.75" y="-407" type="move" name="bottom_dd"/>
    </contour>
  </outline>
</glyph>
<glyph name="r" format="1">
  <advance width="521.25"/>
  <unicode hex="0072"/>
  <outline>
    <contour>
      <point x="252.75" y="894" type="line"/>
      <point x="248.25" y="1082" type="line"/>
      <point x="102.75" y="1082" type="line"/>
      <point x="102.75" y="0" type="line"/>
      <point x="252.75" y="0" type="line"/>
    </contour>
    <contour>
      <point x="498.75" y="1091" type="line"/>
      <point x="489.0" y="1097"/>
      <point x="455.25" y="1102"/>
      <point x="436.5" y="1102" type="curve"/>
      <point x="264.0" y="1102"/>
      <point x="189.75" y="881"/>
      <point x="189.75" y="577" type="curve"/>
      <point x="230.25" y="580" type="line"/>
      <point x="243.75" y="835"/>
      <point x="306.0" y="1049"/>
      <point x="429.0" y="1049" type="curve"/>
      <point x="456.0" y="1049"/>
      <point x="474.0" y="1046"/>
      <point x="498.75" y="1043" type="curve"/>
    </contour>
    <contour>
      <point x="305.25" y="1290" type="move" name="top"/>
    </contour>
    <contour>
      <point x="188.25" y="19" type="move" name="bottom"/>
    </contour>
    <contour>
      <point x="521.25" y="1600" type="move" name="top_dd"/>
    </contour>
    <contour>
      <point x="521.25" y="-407" type="move" name="bottom_dd"/>
    </contour>
    <contour>
      <point x="521.25" y="1290" type="move" name="top0315"/>
    </contour>
  </outline>
</glyph>
<glyph name="s" format="1">
  <advance width="795.75"/>
  <unicode hex="0073"/>
  <outline>
    <contour>
      <point x="572.25" y="265" type="curve" smooth="yes"/>
      <point x="572.25" y="152"/>
      <point x="513.75" y="34"/>
      <point x="405.75" y="34" type="curve" smooth="yes"/>
      <point x="322.5" y="34"/>
      <point x="226.5" y="89"/>
      <point x="220.5" y="275" type="curve"/>
      <point x="70.5" y="275" type="line"/>
      <point x="70.5" y="116"/>
      <point x="188.25" y="-20"/>
      <point x="405.75" y="-20" type="curve" smooth="yes"/>
      <point x="596.25" y="-20"/>
      <point x="722.25" y="97"/>
      <point x="722.25" y="264" type="curve"/>
      <point x="722.25" y="434"/>
      <point x="628.5" y="520"/>
      <point x="429.0" y="579" type="curve" smooth="yes"/>
      <point x="282.0" y="643"/>
      <point x="248.25" y="720"/>
      <point x="248.25" y="831" type="curve"/>
      <point x="248.25" y="932"/>
      <point x="291.75" y="1048"/>
      <point x="402.0" y="1048" type="curve" smooth="yes"/>
      <point x="505.5" y="1048"/>
      <point x="563.25" y="927"/>
      <point x="563.25" y="793" type="curve"/>
      <point x="713.25" y="793" type="line"/>
      <point x="713.25" y="977"/>
      <point x="597.75" y="1102"/>
      <point x="402.0" y="1102" type="curve" smooth="yes"/>
      <point x="218.25" y="1102"/>
      <point x="98.25" y="980"/>
      <point x="98.25" y="829" type="curve"/>
      <point x="98.25" y="652"/>
      <point x="212.25" y="584"/>
      <point x="392.25" y="532" type="curve" smooth="yes"/>
      <point x="548.25" y="474"/>
      <point x="572.25" y="363"/>
    </contour>
    <contour>
      <point x="426.0" y="1290" type="move" name="top"/>
    </contour>
    <contour>
      <point x="426.0" y="-5" type="move" name="bottom"/>
    </contour>
    <contour>
      <point x="795.75" y="1600" type="move" name="top_dd"/>
    </contour>
    <contour>
      <point x="795.75" y="-407" type="move" name="bottom_dd"/>
    </contour>
    <contour>
      <point x="795.75" y="1290" type="move" name="top0315"/>
    </contour>
  </outline>
</glyph>
<glyph name="t" format="1">
  <advance width="504.0"/>
  <unicode hex="0074"/>
  <outline>
    <contour>
      <point x="450.0" y="1082" type="line"/>
      <point x="4.5" y="1082" type="line"/>
      <point x="4.5" y="1027" type="line"/>
      <point x="450.0" y="1027" type="line"/>
    </contour>
    <contour>
      <point x="152.25" y="1374" type="line"/>
      <point x="152.25" y="259" type="line"/>
      <point x="152.25" y="42"/>
      <point x="239.25" y="-20"/>
      <point x="342.0" y="-20" type="curve" smooth="yes"/>
      <point x="394.5" y="-20"/>
      <point x="429.75" y="-18"/>
      <point x="451.5" y="-8" type="curve"/>
      <point x="451.5" y="43" type="line"/>
      <point x="440.25" y="38"/>
      <point x="410.25" y="34"/>
      <point x="387.75" y="34" type="curve" smooth="yes"/>
      <point x="343.5" y="34"/>
      <point x="302.25" y="69"/>
      <point x="302.25" y="259" type="curve"/>
      <point x="302.25" y="1374" type="line"/>
    </contour>
    <contour>
      <point x="432.0" y="1290" type="move" name="marktop"/>
    </contour>
    <contour>
      <point x="504.0" y="1540" type="move" name="top0315"/>
    </contour>
    <contour>
      <point x="237.75" y="1540" type="move" name="top"/>
    </contour>
    <contour>
      <point x="342.75" y="0" type="move" name="bottom"/>
    </contour>
    <contour>
      <point x="224.25" y="659" type="move" name="cross"/>
    </contour>
    <contour>
      <point x="409.5" y="1560" type="move" name="caron"/>
    </contour>
    <contour>
      <point x="504.0" y="1600" type="move" name="top_dd"/>
    </contour>
    <contour>
      <point x="504.0" y="-407" type="move" name="bottom_dd"/>
    </contour>
  </outline>
</glyph>
<glyph name="u" format="1">
  <advance width="847.5"/>
  <unicode hex="0075"/>
  <outline>
    <contour>
      <point x="594.75" y="250" type="line"/>
      <point x="602.25" y="0" type="line"/>
      <point x="744.75" y="0" type="line"/>
      <point x="744.75" y="1082" type="line"/>
      <point x="594.75" y="1082" type="line"/>
    </contour>
    <contour>
      <point x="622.5" y="423" type="line"/>
      <point x="622.5" y="226"/>
      <point x="562.5" y="34"/>
      <point x="390.75" y="34" type="curve" smooth="yes"/>
      <point x="321.0" y="34"/>
      <point x="249.75" y="128"/>
      <point x="249.75" y="393" type="curve"/>
      <point x="249.75" y="1082" type="line"/>
      <point x="99.75" y="1082" type="line"/>
      <point x="99.75" y="395" type="line"/>
      <point x="99.75" y="93"/>
      <point x="207.0" y="-20"/>
      <point x="366.0" y="-20" type="curve" smooth="yes"/>
      <point x="600.0" y="-20"/>
      <point x="683.25" y="169"/>
      <point x="683.25" y="425" type="curve"/>
    </contour>
    <contour>
      <point x="422.25" y="0" type="move" name="bottom"/>
    </contour>
    <contour>
      <point x="690.0" y="654" type="move" name="rhotichook"/>
    </contour>
    <contour>
      <point x="424.5" y="1293" type="move" name="top"/>
    </contour>
    <contour>
      <point x="847.5" y="1293" type="move" name="top0315"/>
    </contour>
    <contour>
      <point x="381.0" y="0" type="move" name="bottomu"/>
    </contour>
    <contour>
      <point x="847.5" y="1600" type="move" name="top_dd"/>
    </contour>
    <contour>
      <point x="736.5" y="0" type="move" name="ogonek"/>
    </contour>
    <contour>
      <point x="847.5" y="-407" type="move" name="bottom_dd"/>
    </contour>
  </outline>
</glyph>
<glyph name="v" format="1">
  <advance width="745.5"/>
  <unicode hex="0076"/>
  <outline>
    <contour>
      <point x="351.75" y="64" type="line"/>
      <point x="329.25" y="0" type="line"/>
      <point x="429.0" y="0" type="line"/>
      <point x="717.75" y="1082" type="line"/>
      <point x="564.75" y="1082" type="line"/>
    </contour>
    <contour>
      <point x="177.0" y="1082" type="line"/>
      <point x="24.0" y="1082" type="line"/>
      <point x="315.75" y="0" type="line"/>
      <point x="414.75" y="0" type="line"/>
      <point x="398.25" y="63" type="line"/>
    </contour>
    <contour>
      <point x="379.5" y="1280" type="move" name="top"/>
    </contour>
    <contour>
      <point x="379.5" y="10" type="move" name="bottom"/>
    </contour>
    <contour>
      <point x="745.5" y="1600" type="move" name="top_dd"/>
    </contour>
    <contour>
      <point x="745.5" y="-407" type="move" name="bottom_dd"/>
    </contour>
    <contour>
      <point x="745.5" y="1280" type="move" name="top0315"/>
    </contour>
  </outline>
</glyph>
<glyph name="w" format="1">
  <advance width="1153.5"/>
  <unicode hex="0077"/>
  <outline>
    <contour>
      <point x="304.5" y="313" type="line"/>
      <point x="291.0" y="0" type="line"/>
      <point x="385.5" y="0" type="line"/>
      <point x="599.25" y="813" type="line"/>
      <point x="613.5" y="1082" type="line"/>
      <point x="515.25" y="1082" type="line"/>
    </contour>
    <contour>
      <point x="177.75" y="1082" type="line"/>
      <point x="29.25" y="1082" type="line"/>
      <point x="264.75" y="0" type="line"/>
      <point x="364.5" y="0" type="line"/>
      <point x="357.0" y="313" type="line"/>
    </contour>
    <contour>
      <point x="803.25" y="313" type="line"/>
      <point x="786.75" y="0" type="line"/>
      <point x="885.75" y="0" type="line"/>
      <point x="1121.25" y="1082" type="line"/>
      <point x="972.75" y="1082" type="line"/>
    </contour>
    <contour>
      <point x="635.25" y="1082" type="line"/>
      <point x="531.0" y="1082" type="line"/>
      <point x="545.25" y="813" type="line"/>
      <point x="765.0" y="0" type="line"/>
      <point x="859.5" y="0" type="line"/>
      <point x="841.5" y="313" type="line"/>
    </contour>
    <contour>
      <point x="574.5" y="10" type="move" name="bottom"/>
    </contour>
    <contour>
      <point x="1153.5" y="1293" type="move" name="top0315"/>
    </contour>
    <contour>
      <point x="572.25" y="1293" type="move" name="top"/>
    </contour>
    <contour>
      <point x="572.25" y="1293" type="move" name="marktop"/>
    </contour>
    <contour>
      <point x="1153.5" y="1600" type="move" name="top_dd"/>
    </contour>
    <contour>
      <point x="1153.5" y="-407" type="move" name="bottom_dd"/>
    </contour>
  </outline>
</glyph>
<glyph name="x" format="1">
  <advance width="765.0"/>
  <unicode hex="0078"/>
  <outline>
    <contour>
      <point x="210.0" y="1082" type="line"/>
      <point x="37.5" y="1082" type="line"/>
      <point x="300.75" y="555" type="line"/>
      <point x="30.0" y="0" type="line"/>
      <point x="204.0" y="0" type="line"/>
      <point x="381.75" y="508" type="line"/>
      <point x="559.5" y="0" type="line"/>
      <point x="732.0" y="0" type="line"/>
      <point x="461.25" y="555" type="line"/>
      <point x="724.5" y="1082" type="line"/>
      <point x="549.75" y="1082" type="line"/>
      <point x="378.75" y="602" type="line"/>
    </contour>
    <contour>
      <point x="649.5" y="0" type="move" name="right"/>
    </contour>
    <contour>
      <point x="765.0" y="1280" type="move" name="top0315"/>
    </contour>
    <contour>
      <point x="381.0" y="1280" type="move" name="top"/>
    </contour>
    <contour>
      <point x="383.25" y="10" type="move" name="bottom"/>
    </contour>
    <contour>
      <point x="381.0" y="553" type="move" name="cross"/>
    </contour>
    <contour>
      <point x="765.0" y="1600" type="move" name="top_dd"/>
    </contour>
    <contour>
      <point x="765.0" y="-407" type="move" name="bottom_dd"/>
    </contour>
  </outline>
</glyph>
<glyph name="y" format="1">
  <advance width="726.0"/>
  <unicode hex="0079"/>
  <outline>
    <contour>
      <point x="328.5" y="104" type="line"/>
      <point x="272.25" y="-170" type="line" smooth="yes"/>
      <point x="239.25" y="-295"/>
      <point x="191.25" y="-384"/>
      <point x="97.5" y="-384" type="curve" smooth="yes"/>
      <point x="90.75" y="-384"/>
      <point x="69.75" y="-380"/>
      <point x="62.25" y="-375" type="curve"/>
      <point x="62.25" y="-426" type="line"/>
      <point x="77.25" y="-433"/>
      <point x="119.25" y="-437"/>
      <point x="142.5" y="-437" type="curve" smooth="yes"/>
      <point x="289.5" y="-437"/>
      <point x="356.25" y="-271"/>
      <point x="386.25" y="-180" type="curve" smooth="yes"/>
      <point x="708.0" y="1082" type="line"/>
      <point x="548.25" y="1082" type="line"/>
    </contour>
    <contour>
      <point x="178.5" y="1082" type="line"/>
      <point x="15.0" y="1082" type="line"/>
      <point x="309.75" y="-21" type="line"/>
      <point x="417.0" y="10" type="line"/>
      <point x="378.0" y="64" type="line"/>
    </contour>
    <contour>
      <point x="380.25" y="1293" type="move" name="marktop"/>
    </contour>
    <contour>
      <point x="552.75" y="654" type="move" name="rhotichook"/>
    </contour>
    <contour>
      <point x="726.0" y="1293" type="move" name="top0315"/>
    </contour>
    <contour>
      <point x="380.25" y="1293" type="move" name="top"/>
    </contour>
    <contour>
      <point x="533.25" y="-158" type="move" name="bottom"/>
    </contour>
    <contour>
      <point x="726.0" y="1600" type="move" name="top_dd"/>
    </contour>
    <contour>
      <point x="726.0" y="-407" type="move" name="bottom_dd"/>
    </contour>
  </outline>
</glyph>
<glyph name="z" format="1">
  <advance width="765.0"/>
  <unicode hex="007A"/>
  <outline>
    <contour>
      <point x="711.75" y="54" type="line"/>
      <point x="124.5" y="54" type="line"/>
      <point x="124.5" y="0" type="line"/>
      <point x="711.75" y="0" type="line"/>
    </contour>
    <contour>
      <point x="692.25" y="1034" type="line"/>
      <point x="692.25" y="1082" type="line"/>
      <point x="597.0" y="1082" type="line"/>
      <point x="66.75" y="44" type="line"/>
      <point x="66.75" y="0" type="line"/>
      <point x="158.25" y="0" type="line"/>
    </contour>
    <contour>
      <point x="626.25" y="1082" type="line"/>
      <point x="71.25" y="1082" type="line"/>
      <point x="71.25" y="1027" type="line"/>
      <point x="626.25" y="1027" type="line"/>
    </contour>
    <contour>
      <point x="386.25" y="1293" type="move" name="top"/>
    </contour>
    <contour>
      <point x="393.0" y="10" type="move" name="bottom"/>
    </contour>
    <contour>
      <point x="765.0" y="1600" type="move" name="top_dd"/>
    </contour>
    <contour>
      <point x="765.0" y="-407" type="move" name="bottom_dd"/>
    </contour>
    <contour>
      <point x="765.0" y="1293" type="move" name="top0315"/>
    </contour>
  </outline>
</glyph>
<glyph name="braceleft" format="1">
  <advance width="522.75"/>
  <unicode hex="007B"/>
  <outline>
    <contour>
      <point x="473.25" y="1597" type="line"/>
      <point x="267.0" y="1520"/>
      <point x="203.25" y="1342"/>
      <point x="203.25" y="1132" type="curve"/>
      <point x="203.25" y="885" type="line"/>
      <point x="203.25" y="717"/>
      <point x="157.5" y="609"/>
      <point x="47.25" y="609" type="curve"/>
      <point x="47.25" y="566" type="line"/>
      <point x="264.75" y="566"/>
      <point x="353.25" y="706"/>
      <point x="353.25" y="885" type="curve"/>
      <point x="353.25" y="1132" type="line"/>
      <point x="353.25" y="1331"/>
      <point x="388.5" y="1489"/>
      <point x="504.0" y="1552" type="curve"/>
    </contour>
    <contour>
      <point x="504.0" y="-395" type="line"/>
      <point x="388.5" y="-329"/>
      <point x="353.25" y="-181"/>
      <point x="353.25" y="20" type="curve" smooth="yes"/>
      <point x="353.25" y="265" type="line" smooth="yes"/>
      <point x="353.25" y="444"/>
      <point x="264.75" y="586"/>
      <point x="47.25" y="586" type="curve"/>
      <point x="47.25" y="543" type="line"/>
      <point x="157.5" y="543"/>
      <point x="203.25" y="434"/>
      <point x="203.25" y="265" type="curve" smooth="yes"/>
      <point x="203.25" y="20" type="line" smooth="yes"/>
      <point x="203.25" y="-190"/>
      <point x="267.0" y="-364"/>
      <point x="473.25" y="-441" type="curve"/>
    </contour>
  </outline>
</glyph>
<glyph name="braceright" format="1">
  <advance width="522.75"/>
  <unicode hex="007D"/>
  <outline>
    <contour>
      <point x="16.5" y="1552" type="line"/>
      <point x="132.0" y="1489"/>
      <point x="167.25" y="1331"/>
      <point x="167.25" y="1132" type="curve" smooth="yes"/>
      <point x="167.25" y="885" type="line" smooth="yes"/>
      <point x="167.25" y="706"/>
      <point x="256.5" y="566"/>
      <point x="473.25" y="566" type="curve"/>
      <point x="473.25" y="609" type="line"/>
      <point x="363.0" y="609"/>
      <point x="317.25" y="717"/>
      <point x="317.25" y="885" type="curve" smooth="yes"/>
      <point x="317.25" y="1132" type="line" smooth="yes"/>
      <point x="317.25" y="1342"/>
      <point x="254.25" y="1520"/>
      <point x="47.25" y="1597" type="curve"/>
    </contour>
    <contour>
      <point x="47.25" y="-441" type="line"/>
      <point x="254.25" y="-364"/>
      <point x="317.25" y="-190"/>
      <point x="317.25" y="20" type="curve" smooth="yes"/>
      <point x="317.25" y="265" type="line" smooth="yes"/>
      <point x="317.25" y="434"/>
      <point x="363.0" y="543"/>
      <point x="473.25" y="543" type="curve"/>
      <point x="473.25" y="586" type="line"/>
      <point x="256.5" y="586"/>
      <point x="167.25" y="444"/>
      <point x="167.25" y="265" type="curve" smooth="yes"/>
      <point x="167.25" y="20" type="line" smooth="yes"/>
      <point x="167.25" y="-181"/>
      <point x="132.0" y="-329"/>
      <point x="16.5" y="-395" type="curve"/>
    </contour>
  </outline>
</glyph>
<glyph name="asciitilde" format="1">
  <advance width="1043.25"/>
  <unicode hex="007E"/>
  <outline>
    <contour>
      <point x="826.5" y="753" type="line"/>
      <point x="826.5" y="596"/>
      <point x="775.5" y="496"/>
      <point x="701.25" y="496" type="curve" smooth="yes"/>
      <point x="654.0" y="496"/>
      <point x="618.0" y="531"/>
      <point x="566.25" y="624" type="curve" smooth="yes"/>
      <point x="492.75" y="717"/>
      <point x="429.75" y="774"/>
      <point x="342.75" y="774" type="curve" smooth="yes"/>
      <point x="199.5" y="774"/>
      <point x="96.0" y="631"/>
      <point x="96.0" y="462" type="curve"/>
      <point x="225.75" y="462" type="line"/>
      <point x="225.75" y="632"/>
      <point x="268.5" y="720"/>
      <point x="342.75" y="720" type="curve" smooth="yes"/>
      <point x="390.0" y="720"/>
      <point x="429.0" y="682"/>
      <point x="477.75" y="593" type="curve" smooth="yes"/>
      <point x="555.0" y="496"/>
      <point x="614.25" y="443"/>
      <point x="701.25" y="443" type="curve" smooth="yes"/>
      <point x="844.5" y="443"/>
      <point x="948.75" y="589"/>
      <point x="948.75" y="752" type="curve"/>
    </contour>
  </outline>
</glyph>
<glyph name="exclamdown" format="1">
  <advance width="382.5"/>
  <unicode hex="00A1"/>
  <outline>
    <contour>
      <point x="116.25" y="-359" type="line"/>
      <point x="273.75" y="-359" type="line"/>
      <point x="262.5" y="696" type="line"/>
      <point x="127.5" y="696" type="line"/>
    </contour>
    <contour>
      <point x="277.5" y="1048" type="curve" smooth="yes"/>
      <point x="277.5" y="1079"/>
      <point x="248.25" y="1103"/>
      <point x="191.25" y="1103" type="curve" smooth="yes"/>
      <point x="134.25" y="1103"/>
      <point x="104.25" y="1079"/>
      <point x="104.25" y="1048" type="curve" smooth="yes"/>
      <point x="104.25" y="1017"/>
      <point x="134.25" y="992"/>
      <point x="191.25" y="992" type="curve" smooth="yes"/>
      <point x="248.25" y="992"/>
      <point x="277.5" y="1017"/>
    </contour>
  </outline>
</glyph>
